<svg width="100" height="135" viewBox="0 0 100 135" fill="none" xmlns="http://www.w3.org/2000/svg">
<path d="M99.4918 1.2373V99.8565H57.3201V104.596C62.3654 107.175 65.8269 112.424 65.8269 118.499C65.8269 127.13 58.8473 134.132 50.1935 134.132C41.5397 134.132 34.5827 127.13 34.5827 118.499C34.5827 112.436 38.0443 107.187 43.0895 104.596V99.8565H0.804688V57.6622H5.47661C7.63723 61.8477 11.6078 64.9699 16.4041 65.8635C16.7209 65.9201 17.0602 65.9654 17.377 66.0219C17.7277 66.0558 18.067 66.0898 18.4177 66.1237C18.7344 66.1464 19.0512 66.1577 19.3679 66.1577C19.6281 66.1577 19.8996 66.1577 20.1598 66.135C20.7027 66.1124 21.2344 66.0672 21.7548 65.9767C22.0376 65.9201 22.2978 65.8862 22.5919 65.8183C29.7751 64.4382 35.1597 58.1034 35.1597 50.5243C35.1597 42.9452 29.7638 36.6217 22.5919 35.2416C22.3091 35.1737 22.0489 35.1398 21.7548 35.0832C21.2457 34.9927 20.7141 34.9362 20.1598 34.9249C19.8996 34.9022 19.6281 34.9022 19.3679 34.9022C19.0512 34.9022 18.7344 34.9248 18.4177 34.9362C18.067 34.9588 17.7277 34.9927 17.377 35.038C17.0602 35.0945 16.7209 35.1398 16.4041 35.1963C11.6078 36.1013 7.63723 39.2122 5.47661 43.3976H0.804688V1.2373H99.4918Z" fill="#E6E6E6" stroke="white" stroke-miterlimit="10"/>
</svg>
