<svg width="169" height="102" viewBox="0 0 169 102" fill="none" xmlns="http://www.w3.org/2000/svg">
<path d="M168 51.4641C168 60.0953 160.997 67.0975 152.366 67.0975C146.303 67.0975 141.054 63.636 138.464 58.5794H133.792V100.774H35.1047V58.5794H30.3649C27.7858 63.636 22.5256 67.0975 16.4623 67.0975C7.83115 67.0975 0.851562 60.0953 0.851562 51.4641C0.851562 42.8329 7.83115 35.8307 16.4623 35.8307C22.5256 35.8307 27.7745 39.2922 30.3649 44.3488H35.1047V1.45312H77.299V6.19291C72.2425 8.79471 68.7923 14.0209 68.7923 20.0955C68.7923 28.7267 75.7719 35.7289 84.403 35.7289C93.0342 35.7289 100.036 28.7267 100.036 20.0955C100.036 14.0322 96.5749 8.79471 91.5297 6.19291V1.45312H133.792V44.3488H138.464C141.043 39.2922 146.303 35.8307 152.366 35.8307C160.997 35.8307 168 42.8329 168 51.4641Z" fill="#E6E6E6" stroke="white" stroke-miterlimit="10"/>
</svg>
