<svg width="134" height="100" viewBox="0 0 134 100" fill="none" xmlns="http://www.w3.org/2000/svg">
<path d="M133.38 50.1549C133.38 58.7861 126.378 65.7657 117.747 65.7657C111.684 65.7657 106.446 62.3155 103.844 57.2589H99.1044V99.4532H56.9328V95.4713C59.4214 94.1931 61.5481 92.2474 62.9961 89.8832C63.2562 89.4985 63.4938 89.0913 63.6861 88.684C63.8784 88.3107 64.0594 87.9374 64.2178 87.5528C64.2517 87.5189 64.2743 87.4623 64.2856 87.4284C64.3196 87.3605 64.3535 87.27 64.3761 87.2022C64.444 87.0099 64.5119 86.7949 64.5911 86.6026C64.6929 86.2859 64.806 85.9465 64.8965 85.6298C64.9983 85.3243 65.0775 85.0076 65.1228 84.6909C65.1906 84.3741 65.2472 84.0687 65.2811 83.752C65.3829 83.028 65.4395 82.3153 65.4395 81.58C65.4395 81.2746 65.4395 80.9805 65.4169 80.6977C65.3942 80.4488 65.3829 80.2226 65.349 79.985C65.2924 79.442 65.2246 78.8877 65.1001 78.3561C65.0436 78.1072 65.0096 77.8583 64.9418 77.6321C64.8739 77.3832 64.806 77.157 64.7268 76.9194C64.659 76.6706 64.5685 76.4443 64.478 76.1955C62.34 70.1887 56.5708 65.8901 49.8061 65.8901C44.1161 65.8901 39.1275 68.9331 36.4352 73.4805C36.0506 74.114 35.7112 74.7928 35.4058 75.4941C34.9985 76.4104 34.7157 77.3719 34.5234 78.3561C34.4555 78.6163 34.399 78.8991 34.365 79.1819C34.3311 79.442 34.2972 79.7135 34.2746 79.9737C34.2406 80.1999 34.218 80.4375 34.2067 80.6864C34.1841 80.9692 34.1841 81.2746 34.1841 81.5687C34.1841 82.3153 34.2406 83.0167 34.3424 83.7406C34.3764 84.0574 34.4329 84.3628 34.5008 84.6796C34.5574 84.9963 34.6252 85.313 34.727 85.6185C34.7949 85.9239 34.8854 86.218 34.9872 86.5234C35.0777 86.8062 35.1795 87.0664 35.304 87.3379C35.304 87.3605 35.304 87.3945 35.3266 87.4058C35.3266 87.4284 35.3492 87.4397 35.3492 87.4397C35.4397 87.7225 35.5641 87.9827 35.6999 88.2542C35.9487 88.7972 36.2429 89.3515 36.6048 89.8605C38.0528 92.2248 40.1795 94.1931 42.6908 95.4713V99.4532H0.507812V0.856613H42.7021V5.59639C37.6456 8.17556 34.1954 13.4244 34.1954 19.499C34.1954 19.8158 34.218 20.1325 34.2293 20.4492C34.2293 20.6755 34.2519 20.8791 34.2859 21.0827C34.3085 21.309 34.3198 21.5239 34.3537 21.7501C34.5121 22.8474 34.7949 23.9221 35.1795 24.9515C35.2813 25.2343 35.3944 25.5171 35.5189 25.7773C35.6433 26.0601 35.7678 26.3202 35.9035 26.5917C36.4125 27.5985 37.0347 28.56 37.7587 29.4198C37.9171 29.6121 38.0754 29.7931 38.2338 29.9627C39.2745 31.1279 40.5188 32.1234 41.8537 32.9152C42.012 33.017 42.1704 33.1075 42.3514 33.2206C42.4532 33.2772 42.5663 33.3451 42.6908 33.379C43.2338 33.6618 43.822 33.922 44.4215 34.1369C45.1455 34.4197 45.8921 34.6347 46.65 34.7704C46.8989 34.827 47.1591 34.8722 47.4079 34.9175C47.9396 34.9853 48.4487 35.0419 49.003 35.0758C49.1387 35.0984 49.2631 35.0985 49.4102 35.0985C49.5346 35.1211 49.6591 35.1211 49.7948 35.1211C49.9305 35.1211 50.055 35.1211 50.1794 35.0985C50.3265 35.0985 50.4396 35.0984 50.5867 35.0758C51.1296 35.0419 51.65 34.9853 52.1817 34.9175C52.4305 34.8835 52.6907 34.827 52.9396 34.7704C53.6975 34.6233 54.4441 34.4197 55.1681 34.1369C55.926 33.8768 56.65 33.5374 57.3626 33.1415C57.3852 33.1188 57.3966 33.1188 57.4305 33.1075C57.6454 32.9831 57.8377 32.8587 58.03 32.7342C58.1884 32.6437 58.3468 32.5419 58.4938 32.4514C58.6522 32.3496 58.8106 32.2365 58.9576 32.112C59.5232 31.7274 60.0549 31.2863 60.5527 30.7998C60.7676 30.6075 60.9599 30.3926 61.1409 30.2003C61.3671 29.9854 61.5707 29.7704 61.7404 29.5442C62.521 28.6392 63.1771 27.6324 63.72 26.5691C63.8445 26.3429 63.9689 26.094 64.0594 25.8451C64.3196 25.2795 64.5571 24.68 64.7268 24.0804C64.8173 23.8655 64.8626 23.6506 64.9191 23.447C65.0775 22.8813 65.1793 22.3157 65.2698 21.7275C65.3037 21.5013 65.3264 21.2863 65.3377 21.0601C65.3716 20.8452 65.3942 20.6529 65.3942 20.4266C65.4169 20.1099 65.4282 19.7931 65.4282 19.4764C65.4282 13.4131 61.9667 8.16425 56.9215 5.57377V0.833984H99.0931V43.0056H103.833C106.435 37.9604 111.672 34.4989 117.736 34.4989C126.367 34.4989 133.369 41.5011 133.369 50.1323L133.38 50.1549Z" fill="#E6E6E6" stroke="white" stroke-miterlimit="10"/>
</svg>
