<svg width="168" height="101" viewBox="0 0 168 101" fill="none" xmlns="http://www.w3.org/2000/svg">
<path d="M167.002 50.5356C167.002 58.0695 161.674 64.3477 154.593 65.8296C154.31 65.8975 154.05 65.9314 153.756 65.988C153.224 66.0559 152.715 66.1124 152.161 66.1464C151.901 66.169 151.629 66.169 151.369 66.169C151.052 66.169 150.735 66.1464 150.419 66.135C150.068 66.1011 149.729 66.0672 149.378 66.0332C149.061 65.9767 148.722 65.9314 148.405 65.8749C143.699 64.902 139.774 61.8025 137.636 57.6736H132.806V99.8679H90.5436V96.1348C91.1431 95.8294 91.7087 95.4787 92.263 95.1054C92.806 94.7321 93.3377 94.3249 93.8354 93.8724C94.0843 93.6575 94.3331 93.4312 94.5594 93.1824C94.7856 92.9561 95.0232 92.7186 95.2268 92.4584C95.3286 92.3566 95.4417 92.2322 95.5322 92.1077C95.6906 91.9267 95.8376 91.7344 95.9734 91.5421C96.1996 91.2367 96.4372 90.9199 96.6295 90.5919C96.6861 90.524 96.72 90.4448 96.7652 90.377C96.7992 90.3204 96.8218 90.2751 96.8557 90.2186C96.9462 90.0602 97.048 89.8792 97.1385 89.7095C97.3874 89.2457 97.6136 88.7706 97.8286 88.2955C97.8625 88.1937 97.9191 88.0806 97.953 87.9788C98.0548 87.696 98.1679 87.4132 98.2584 87.1304C98.315 86.972 98.3603 86.791 98.4168 86.6326C98.4847 86.3725 98.5526 86.0897 98.6317 85.8182C98.6883 85.6372 98.7222 85.4449 98.7336 85.2752C98.7562 85.2526 98.7562 85.2412 98.7562 85.2412C98.8241 84.9245 98.8806 84.5851 98.9146 84.2684C98.9711 83.929 99.005 83.5784 99.0164 83.2277C99.039 82.8544 99.0503 82.4698 99.0503 82.0965C99.0503 81.8815 99.0503 81.6666 99.0277 81.463C99.005 81.2028 98.9937 80.9539 98.9711 80.6824C98.9485 80.4336 98.9145 80.1847 98.8693 79.9359C98.8354 79.6757 98.8014 79.4268 98.7222 79.1553C98.7222 79.0988 98.7222 79.0309 98.6883 78.9743C98.6657 78.7933 98.6317 78.6236 98.5865 78.4426C98.3942 77.5377 98.0888 76.678 97.7381 75.8635C97.4326 75.1734 97.082 74.506 96.6747 73.8612C96.4146 73.3861 96.0865 72.945 95.7358 72.5038C95.6114 72.3228 95.487 72.1644 95.3286 72.006C95.1702 71.7911 94.9779 71.5762 94.7856 71.3839C94.7177 71.2821 94.6046 71.1916 94.5028 71.0784C94.3218 70.8861 94.1295 70.6938 93.9146 70.5128C93.7675 70.3884 93.6318 70.2527 93.4508 70.1056C93.2359 69.9246 93.0209 69.7549 92.7947 69.5966C92.7042 69.5061 92.6024 69.4382 92.4892 69.3816C92.263 69.2006 92.0255 69.0423 91.7766 68.9065C91.5617 68.7481 91.3354 68.6011 91.0866 68.4767C91.0187 68.4201 90.9508 68.3862 90.8603 68.3522C90.6001 68.1939 90.3173 68.0468 90.0345 67.9224C89.6952 67.7414 89.3445 67.6056 88.9938 67.4812C88.6771 67.3341 88.3264 67.2323 87.987 67.1305C87.4214 66.9495 86.8558 66.8138 86.2563 66.7006C85.7925 66.6101 85.34 66.5423 84.8762 66.5083C84.3784 66.4518 83.9033 66.4405 83.4056 66.4405C82.9079 66.4405 82.4328 66.4631 81.935 66.5083C81.4712 66.5423 81.0187 66.6101 80.5549 66.7006C79.9667 66.8025 79.3898 66.9495 78.8242 67.1305C78.4848 67.2323 78.1341 67.3454 77.8174 67.4812C77.4667 67.6056 77.1047 67.7414 76.7767 67.9224C76.4939 68.0468 76.2111 68.1825 75.9396 68.3522C75.8717 68.3862 75.8038 68.4201 75.7247 68.4767C75.4419 68.6237 75.159 68.7934 74.8989 68.9744C74.7518 69.0649 74.6387 69.1328 74.5143 69.2346C74.2654 69.3929 74.0392 69.5739 73.8016 69.7662C73.7337 69.8002 73.6659 69.8681 73.5867 69.9472C73.2812 70.1622 72.9984 70.411 72.7383 70.6712C72.7043 70.7051 72.6704 70.7278 72.6478 70.7617C72.365 71.0106 72.1161 71.2708 71.8672 71.5536C71.8107 71.6101 71.7654 71.6554 71.7089 71.7346C71.4826 71.9834 71.2677 72.2436 71.0754 72.5151C70.9736 72.6169 70.8944 72.73 70.8265 72.8318C70.6342 73.092 70.4419 73.3748 70.2609 73.6576C70.0347 74.0083 69.8197 74.3703 69.6274 74.7323C69.0053 75.8861 68.5528 77.1191 68.2473 78.4313C68.1908 78.6123 68.1569 78.782 68.1455 78.963C68.1116 79.0196 68.1116 79.0874 68.1116 79.144C68.0437 79.4042 68.0098 79.653 67.9758 79.9245C67.9193 80.1734 67.8854 80.4223 67.874 80.6711C67.8514 80.9313 67.8401 81.1802 67.8175 81.4517C67.7949 81.6666 67.7948 81.8815 67.7948 82.0852C67.7948 82.4585 67.8175 82.8431 67.8288 83.2164C68.1681 88.8611 71.5052 93.7027 76.3016 96.1462V99.8792H34.1073V57.6849H30.1481C29.9331 58.0695 29.7182 58.4654 29.4919 58.8387C29.2431 59.212 28.9942 59.5853 28.734 59.936C28.5078 60.2414 28.2702 60.5355 28.0214 60.8183C27.3879 61.5649 26.6752 62.2324 25.8947 62.8319C25.5893 63.0808 25.2725 63.307 24.9558 63.5219C24.9218 63.5559 24.8653 63.5785 24.8313 63.6124C24.4807 63.8387 24.1187 64.0536 23.768 64.2459C23.3834 64.4608 22.9875 64.6532 22.6029 64.8342C22.2861 64.9812 21.9694 65.0943 21.6526 65.2188C20.9626 65.4789 20.2612 65.6826 19.526 65.8409C19.1753 65.9088 18.8133 65.988 18.4513 66.0332C17.7273 66.135 16.9807 66.1916 16.2228 66.1916C15.759 66.1916 15.2839 66.169 14.8427 66.1237C14.7749 66.1237 14.6957 66.1237 14.6278 66.1011C14.2432 66.0672 13.8699 66.0106 13.474 65.9427H13.4061C12.9762 65.8522 12.5351 65.7617 12.1278 65.6373C11.6866 65.5129 11.2568 65.3884 10.8382 65.2301C10.3631 65.0491 9.89933 64.8568 9.45815 64.6418H9.43552C8.97173 64.4156 8.55318 64.178 8.12332 63.9179C7.89708 63.7934 7.68214 63.6577 7.46721 63.5106C6.64143 62.945 5.86089 62.3115 5.14822 61.5989C4.43556 60.8862 3.80208 60.1283 3.2591 59.3025C3.11204 59.0876 2.97629 58.8726 2.85186 58.669C2.59168 58.2279 2.35413 57.7867 2.12788 57.3455C1.91295 56.8817 1.72065 56.4292 1.53966 55.9541C1.38129 55.5243 1.25685 55.1057 1.13242 54.6645C1.00798 54.2573 0.917482 53.8161 0.826985 53.3863V53.3184C0.759112 52.9338 0.702552 52.5605 0.668616 52.1646C0.645991 52.0967 0.645995 52.0175 0.645995 51.9496C0.589434 51.5084 0.578125 51.0333 0.578125 50.5695C0.578125 50.1962 0.600744 49.8116 0.634681 49.4383C0.668617 48.6804 0.781737 47.9338 0.951419 47.2325C0.974043 47.0515 1.01929 46.8818 1.07585 46.7008C1.14373 46.3614 1.25685 46.0447 1.35866 45.7053C1.46047 45.3546 1.60753 44.9927 1.74327 44.642C1.84508 44.3592 1.99213 44.0538 2.11657 43.7936C2.1505 43.7257 2.18445 43.6578 2.21838 43.5786C2.36544 43.2958 2.50118 43.013 2.68217 42.7529C2.90842 42.3117 3.19123 41.9044 3.47403 41.4972C3.68896 41.1918 3.90389 40.909 4.13014 40.6262C4.31113 40.4339 4.4695 40.2189 4.63918 40.0379C4.79755 39.8569 4.97854 39.6873 5.14822 39.5063C5.4989 39.1556 5.86089 38.8389 6.2455 38.4995H6.26813C6.64143 38.1827 7.04866 37.8773 7.4559 37.5945H7.47853C7.85183 37.3457 8.22513 37.1194 8.60974 36.8819C8.71155 36.8253 8.82467 36.7574 8.9491 36.7009C9.3224 36.5086 9.70702 36.3162 10.1143 36.1353C11.9921 35.3547 14.0396 34.9135 16.2002 34.9135C22.2635 34.9135 27.5123 38.3751 30.1141 43.4203H34.0734V1.2373H132.76V43.4316H137.591C139.729 39.2913 143.654 36.2031 148.36 35.2303C148.677 35.1737 149.016 35.1285 149.333 35.0719C149.683 35.0154 150.023 34.9814 150.373 34.9701C150.69 34.9475 151.007 34.9362 151.324 34.9362C151.584 34.9362 151.855 34.9362 152.116 34.9588C152.659 34.9927 153.179 35.0493 153.711 35.1172C153.993 35.1737 154.254 35.2077 154.548 35.2755C161.64 36.7574 166.957 43.0243 166.957 50.5582L167.002 50.5356Z" fill="#E6E6E6" stroke="white" stroke-miterlimit="10"/>
</svg>
