<svg width="100" height="135" viewBox="0 0 100 135" fill="none" xmlns="http://www.w3.org/2000/svg">
<path d="M99.4918 34.4533V133.763H0.804688V91.5683H5.47661C8.05577 96.6248 13.3046 100.086 19.3792 100.086C28.0104 100.086 35.0126 93.0841 35.0126 84.453C35.0126 75.8218 28.0104 68.8196 19.3792 68.8196C13.3159 68.8196 8.06709 72.2811 5.47661 77.3376H0.804688V34.442H43.0895V30.3923C38.0329 27.8131 34.5827 22.553 34.5827 16.4896C34.5827 7.85848 41.5623 0.878906 50.1935 0.878906C58.8247 0.878906 65.8269 7.85848 65.8269 16.4896C65.8269 22.553 62.3654 27.8018 57.3201 30.3923V34.442H99.4918V34.4533Z" fill="#E6E6E6" stroke="white" stroke-miterlimit="10"/>
</svg>
