<svg width="134" height="100" viewBox="0 0 134 100" fill="none" xmlns="http://www.w3.org/2000/svg">
<path d="M133.49 0.856445V99.453H91.3179V95.4033C96.3518 92.8241 99.8247 87.564 99.8247 81.5007C99.8247 72.8695 92.8224 65.8899 84.1913 65.8899C75.5601 65.8899 68.5805 72.8695 68.5805 81.5007C68.5805 87.564 72.0307 92.8128 77.0873 95.4033V99.453H34.8025V57.2588H30.1532C27.5514 62.3153 22.3252 65.7655 16.2506 65.7655C7.61941 65.7655 0.617188 58.7859 0.617188 50.1547C0.617188 41.5236 7.61941 34.5214 16.2506 34.5214C22.3139 34.5214 27.5514 37.9829 30.1532 43.0281H34.8025V0.856445H77.0873V5.59623C72.042 8.17539 68.5805 13.4242 68.5805 19.4988C68.5805 28.13 75.5601 35.1322 84.1913 35.1322C92.8224 35.1322 99.8247 28.13 99.8247 19.4988C99.8247 13.4355 96.3631 8.18671 91.3179 5.59623V0.856445H133.49Z" fill="#E6E6E6" stroke="white" stroke-miterlimit="10"/>
</svg>
