<svg width="100" height="134" viewBox="0 0 100 134" fill="none" xmlns="http://www.w3.org/2000/svg">
<path d="M65.677 48.427C65.6431 48.8003 65.6205 49.1849 65.6205 49.5582C65.6205 50.022 65.6431 50.4971 65.6884 50.9383C65.6884 51.0062 65.6884 51.0741 65.711 51.1532C65.7449 51.5378 65.8015 51.9112 65.8694 52.3071V52.3749C65.9598 52.8048 66.0503 53.246 66.1748 53.6532C66.2992 54.0944 66.4236 54.5243 66.582 54.9428C66.763 55.4179 66.9553 55.8817 67.1702 56.3342C67.3965 56.7754 67.634 57.2165 67.8942 57.6577C68.0187 57.8726 68.1544 58.0876 68.3015 58.2912C68.8444 59.117 69.4892 59.8862 70.1906 60.5876C70.9033 61.3002 71.6725 61.9337 72.5096 62.4993C72.7245 62.6464 72.9394 62.7821 73.1657 62.9066C73.5955 63.1667 74.0141 63.4043 74.4779 63.6305H74.5005C74.9417 63.8455 75.4055 64.0378 75.8806 64.2188C76.3104 64.3771 76.729 64.5016 77.1702 64.626C77.5774 64.7504 78.0186 64.8409 78.4485 64.9314H78.5163C78.9009 64.9993 79.2742 65.0559 79.6702 65.0898C79.738 65.1124 79.8172 65.1124 79.8851 65.1124C80.3263 65.169 80.8014 65.1803 81.2652 65.1803C82.0231 65.1803 82.7697 65.1237 83.4937 65.0219C83.867 64.9654 84.2176 64.8975 84.5683 64.8296C85.2923 64.6712 86.005 64.4789 86.695 64.2074C87.0117 64.083 87.3285 63.9586 87.6452 63.8228C88.0298 63.6418 88.4257 63.4495 88.8104 63.2346C89.161 63.0423 89.523 62.8274 89.8737 62.6011C89.9076 62.5672 89.9642 62.5446 89.9981 62.5106C90.3149 62.2957 90.6316 62.0695 90.9371 61.8206C91.7176 61.221 92.4189 60.5423 93.0637 59.807C93.3126 59.5242 93.5388 59.2188 93.7764 58.9247C94.0366 58.574 94.2854 58.2007 94.5343 57.8274C94.7606 57.4541 94.9755 57.0695 95.1904 56.6736H99.1497V98.8678H56.978V103.608C62.0119 106.187 65.4847 111.436 65.4847 117.51C65.4847 117.827 65.4621 118.144 65.4508 118.46C65.4508 118.687 65.4282 118.89 65.3942 119.094C65.3716 119.32 65.3603 119.535 65.3264 119.761C65.2359 120.35 65.1341 120.915 64.9757 121.481C64.9191 121.696 64.8739 121.911 64.7834 122.114C64.6024 122.714 64.3761 123.313 64.116 123.879C64.0255 124.128 63.901 124.377 63.7766 124.603C63.2336 125.666 62.5775 126.673 61.797 127.578C61.6047 127.804 61.4124 128.019 61.1974 128.234C61.0164 128.426 60.8241 128.641 60.6092 128.834C60.1115 129.309 59.5798 129.75 59.0142 130.146C58.8671 130.27 58.7088 130.372 58.5504 130.485C58.4033 130.576 58.245 130.678 58.0866 130.768C57.8943 130.892 57.702 131.017 57.4871 131.141C57.4531 131.164 57.4305 131.164 57.4192 131.175C56.7065 131.56 55.9825 131.888 55.2246 132.171C54.5007 132.431 53.754 132.646 52.9961 132.804C52.7473 132.861 52.4871 132.906 52.2382 132.951C51.7066 133.019 51.1975 133.076 50.6432 133.11C50.4962 133.132 50.383 133.132 50.236 133.132H49.4554C49.3084 133.132 49.1953 133.132 49.0482 133.11C48.5052 133.076 47.9849 133.019 47.4532 132.951C47.2043 132.917 46.9441 132.861 46.6953 132.804C45.9374 132.646 45.1908 132.431 44.4668 132.171C43.8672 131.956 43.279 131.696 42.736 131.413C42.6342 131.356 42.5098 131.311 42.3967 131.254C42.2157 131.153 42.0573 131.062 41.8989 130.949C40.5528 130.157 39.3198 129.162 38.279 127.997C38.1207 127.816 37.9623 127.646 37.8039 127.454C37.08 126.583 36.4578 125.632 35.9487 124.626C35.8017 124.365 35.6886 124.094 35.5641 123.811C35.4397 123.551 35.3379 123.268 35.2248 122.985C34.8402 121.956 34.5573 120.881 34.399 119.784C34.365 119.558 34.3424 119.343 34.3311 119.117C34.2972 118.902 34.2745 118.709 34.2745 118.483C34.2519 118.166 34.2406 117.85 34.2406 117.533C34.2406 111.47 37.6908 106.221 42.7473 103.63V98.8905H0.507812V0.237305H99.1044V42.4316H95.1452C92.5434 37.3864 87.2945 33.9249 81.2312 33.9249C79.0706 33.9249 77.0231 34.366 75.1453 35.1466C74.7381 35.3276 74.3535 35.5199 73.9802 35.7122C73.8557 35.7687 73.7539 35.8366 73.6408 35.8932C73.2562 36.1194 72.8829 36.357 72.5096 36.6058H72.4869C72.0797 36.8886 71.6725 37.1941 71.2992 37.5108H71.2765C70.8919 37.8502 70.53 38.1669 70.1793 38.5176C69.9983 38.6986 69.8286 38.8683 69.6702 39.0492C69.4892 39.2302 69.3309 39.4339 69.1612 39.6375C68.9349 39.9203 68.72 40.2031 68.5051 40.5085C68.2223 40.9158 67.9395 41.323 67.7132 41.7642C67.5322 42.0243 67.3965 42.3071 67.2494 42.5899C67.2155 42.6578 67.1816 42.737 67.1476 42.8049C67.0232 43.0651 66.8874 43.3705 66.7743 43.6533C66.6273 44.004 66.4915 44.366 66.3897 44.7166C66.2879 45.056 66.1748 45.3727 66.1069 45.7121C66.0503 45.8931 66.0051 46.0628 65.9825 46.2438C65.8015 46.9564 65.6997 47.6917 65.6657 48.4496L65.677 48.427Z" fill="#E6E6E6"/>
</svg>
