<svg width="127" height="53" viewBox="0 0 127 53" fill="none" xmlns="http://www.w3.org/2000/svg">
<g clip-path="url(#clip0_1951_954)">
<path d="M12.3027 8.62109C12.1934 8.62109 12.0962 8.62109 12.0962 8.73037L9.92228 10.9038C9.81297 11.0131 9.81297 11.2195 9.92228 11.3166L20.9013 22.293L31.8804 11.3166C31.9897 11.2073 31.9897 11.0009 31.8804 10.9038L29.7064 8.73037C29.5971 8.62109 29.3907 8.62109 29.1842 8.73037L20.8892 17.0234L12.5942 8.73037C12.4849 8.62109 12.3877 8.62109 12.2784 8.62109H12.3027ZM8.46488 12.3487C8.35557 12.3487 8.25841 12.3487 8.25841 12.458L6.08446 14.6314C5.97516 14.7407 5.97516 14.9471 6.08446 15.1535L14.3795 23.4465L0.0727012 37.7377C-0.0366035 37.847 -0.0366035 38.0534 0.0727012 38.2598L2.24665 40.4332C2.35596 40.5425 2.56242 40.5425 2.65958 40.4332L19.6504 23.4465L16.9542 20.751L8.6592 12.458C8.6592 12.458 8.54989 12.458 8.45273 12.3487H8.46488ZM33.2285 12.3487C33.1192 12.3487 33.022 12.3487 33.022 12.458L24.727 20.751L22.0308 23.4465L39.0216 40.4332C39.1309 40.5425 39.3374 40.5425 39.4346 40.4332L41.6085 38.2598C41.7178 38.1505 41.7178 37.9441 41.6085 37.7377L27.3139 23.4465L35.6089 15.1535C35.7182 15.0442 35.7182 14.8378 35.6089 14.6314L33.4349 12.458C33.4349 12.458 33.3256 12.3487 33.2285 12.3487ZM20.9013 24.6729L18.2051 27.3684L3.91051 41.6596C3.80121 41.7689 3.80121 41.9753 3.91051 42.1817L6.08446 44.3551C6.19377 44.4644 6.40023 44.4644 6.6067 44.3551L20.9013 30.0639L35.196 44.3551C35.3053 44.4644 35.5117 44.4644 35.7182 44.3551L37.8922 42.1817C38.0015 42.0724 38.0015 41.866 37.8922 41.6596L23.5975 27.3684L20.9013 24.6729Z" fill="#E9190F"/>
<path d="M62.5646 14.6283H59.7566V21.6123H58.1006V14.6283H55.2926V13.3323H62.5646V14.6283ZM69.084 16.8483C69.12 17.1723 69.132 17.4963 69.132 18.0123V21.6123H67.476V18.2403C67.476 17.9763 67.476 17.6763 67.452 17.3523C67.404 16.6803 67.032 16.2243 66.228 16.2243C65.424 16.2363 64.788 16.9203 64.788 18.6963V21.6123H63.132V12.7323H64.788V16.2603L65.28 15.5043C65.736 15.1803 66.204 15.0603 66.816 15.0603C68.172 15.0603 68.952 15.7323 69.084 16.8483ZM76.3811 18.2883C76.3811 18.4443 76.3811 18.6363 76.3571 18.8523H71.8211C71.9291 20.1963 72.5291 20.6163 73.2971 20.6163C74.0051 20.6163 74.5211 20.2203 74.6291 19.5363H76.2851C75.9611 21.0243 74.7611 21.7803 73.2611 21.7803C71.5091 21.7803 70.1531 20.6883 70.1531 18.4443C70.1531 16.4883 71.4371 15.0603 73.3931 15.0603C75.3491 15.0603 76.3811 16.5483 76.3811 18.2883ZM73.3211 16.2243C72.5531 16.2243 72.0131 16.7163 71.8691 17.7723H74.6771C74.5691 16.7643 74.1131 16.2243 73.3211 16.2243ZM84.6546 19.1163H81.8706L81.0426 21.6123H79.2786L82.2666 13.3323H84.3426L87.2706 21.6123H85.4706L84.6546 19.1163ZM83.2746 14.7483L82.2906 17.8083H84.2346L83.2746 14.7483ZM97.444 16.6443C97.492 16.9683 97.504 17.2923 97.504 17.8083V21.6123H95.848V18.2883C95.848 17.9163 95.836 17.5683 95.8 17.2443C95.716 16.5843 95.356 16.2243 94.72 16.2243C93.976 16.2243 93.556 16.8603 93.556 18.3363V21.6123H91.912V18.2883C91.912 17.9163 91.9 17.5683 91.864 17.2443C91.78 16.5843 91.408 16.2243 90.772 16.2243C90.028 16.2243 89.62 16.8603 89.62 18.3363V21.6123H87.964V15.2283H89.62V16.2003L90.088 15.4323C90.448 15.1803 90.868 15.0603 91.444 15.0603C92.488 15.0603 93.148 15.5763 93.4 16.2723L94.024 15.4323C94.384 15.1803 94.816 15.0603 95.392 15.0603C96.604 15.0603 97.3 15.7683 97.444 16.6443ZM104.752 18.2883C104.752 18.4443 104.752 18.6363 104.728 18.8523H100.192C100.3 20.1963 100.9 20.6163 101.668 20.6163C102.376 20.6163 102.892 20.2203 103 19.5363H104.656C104.332 21.0243 103.132 21.7803 101.632 21.7803C99.8802 21.7803 98.5242 20.6883 98.5242 18.4443C98.5242 16.4883 99.8082 15.0603 101.764 15.0603C103.72 15.0603 104.752 16.5483 104.752 18.2883ZM101.692 16.2243C100.924 16.2243 100.384 16.7163 100.24 17.7723H103.048C102.94 16.7643 102.484 16.2243 101.692 16.2243ZM109.602 21.6123L109.482 20.6763L109.17 21.3603C108.726 21.6603 108.186 21.7803 107.586 21.7803C106.482 21.7803 105.534 21.1323 105.534 19.9203C105.534 18.5163 106.734 17.7243 109.05 17.7243H109.458V17.5923C109.458 17.4003 109.458 17.2083 109.434 16.9923C109.386 16.5483 109.098 16.2243 108.45 16.2243C107.79 16.2243 107.43 16.6083 107.382 17.3043L105.774 17.3163C105.822 15.8763 106.986 15.0603 108.51 15.0603C110.298 15.0603 110.97 15.8403 111.066 16.9443C111.09 17.2443 111.102 17.5803 111.102 17.9283V19.9923C111.102 20.4723 111.126 20.9043 111.222 21.6123H109.602ZM108.222 20.6163C108.894 20.6163 109.458 20.1483 109.458 19.2603V18.7443C108.138 18.6483 107.25 18.9483 107.25 19.7883C107.25 20.3523 107.634 20.6163 108.222 20.6163Z" fill="black"/>
<path d="M60.5726 32.254H57.7886L56.9606 34.75H55.1966L58.1846 26.47H60.2606L63.1886 34.75H61.3886L60.5726 32.254ZM59.1926 27.886L58.2086 30.946H60.1526L59.1926 27.886ZM67.134 28.21C67.326 28.21 67.458 28.222 67.602 28.258V29.59C66.222 29.494 65.538 30.106 65.538 31.822V34.75H63.882V28.366H65.538V29.53L66.042 28.642C66.354 28.354 66.774 28.21 67.134 28.21ZM71.142 28.198C72.87 28.198 73.938 29.254 74.058 30.67H72.426C72.27 29.746 71.79 29.362 71.106 29.362C70.266 29.362 69.666 30.046 69.666 31.498C69.666 33.082 70.266 33.754 71.094 33.754C71.742 33.754 72.222 33.346 72.39 32.542H74.046C73.77 34.114 72.594 34.918 70.998 34.918C69.258 34.918 67.95 33.814 67.95 31.606C67.95 29.422 69.39 28.198 71.142 28.198ZM81.0605 29.986C81.0965 30.31 81.1085 30.634 81.1085 31.15V34.75H79.4525V31.378C79.4525 31.114 79.4525 30.814 79.4285 30.49C79.3805 29.818 79.0085 29.362 78.2045 29.362C77.4005 29.374 76.7645 30.058 76.7645 31.834V34.75H75.1085V25.87H76.7645V29.398L77.2565 28.642C77.7125 28.318 78.1805 28.198 78.7925 28.198C80.1485 28.198 80.9285 28.87 81.0605 29.986ZM83.3897 25.99C83.9297 25.99 84.3017 26.35 84.3017 26.866C84.3017 27.394 83.9297 27.742 83.3897 27.742C82.8497 27.742 82.4777 27.394 82.4777 26.866C82.4777 26.35 82.8497 25.99 83.3897 25.99ZM84.2177 34.75H82.5617V28.366H84.2177V34.75ZM91.7972 28.366L89.3252 34.75H87.4772L84.9932 28.366H86.8292L88.4372 33.502L90.0092 28.366H91.7972ZM98.1311 31.426C98.1311 31.582 98.1311 31.774 98.1071 31.99H93.5711C93.6791 33.334 94.2791 33.754 95.0471 33.754C95.7551 33.754 96.2711 33.358 96.3791 32.674H98.0351C97.7111 34.162 96.5111 34.918 95.0111 34.918C93.2591 34.918 91.9031 33.826 91.9031 31.582C91.9031 29.626 93.1871 28.198 95.1431 28.198C97.0991 28.198 98.1311 29.686 98.1311 31.426ZM95.0711 29.362C94.3031 29.362 93.7631 29.854 93.6191 30.91H96.4271C96.3191 29.902 95.8631 29.362 95.0711 29.362ZM101.553 28.198C103.077 28.198 103.941 29.05 104.085 30.214H102.429C102.321 29.626 101.997 29.29 101.445 29.29C100.953 29.29 100.689 29.578 100.689 29.974C100.689 30.454 101.085 30.706 102.141 30.97C103.449 31.306 104.217 31.834 104.217 33.01C104.217 34.294 103.053 34.918 101.589 34.918C100.041 34.918 98.9486 34.246 98.7686 32.806H100.425C100.557 33.502 101.037 33.826 101.613 33.826C102.141 33.826 102.549 33.598 102.549 33.13C102.549 32.638 102.129 32.362 101.025 32.086C99.8366 31.786 99.0206 31.27 99.0206 30.166C99.0206 28.942 100.029 28.198 101.553 28.198Z" fill="black"/>
<path d="M49.7577 0H48.689V53H49.7577V0Z" fill="black"/>
</g>
<defs>
<clipPath id="clip0_1951_954">
<rect width="127" height="53" fill="white"/>
</clipPath>
</defs>
</svg>
