<svg width="802" height="407" viewBox="0 0 802 407" fill="none" xmlns="http://www.w3.org/2000/svg">
<path d="M23.1591 0L18.8864 4.27035C18.5388 4.61769 18.5388 4.98548 18.8864 4.98548L38.5124 24.6005L58.0975 4.98548V4.27035L54.1723 0.347349C53.8248 0 53.4772 0 53.1092 0.347349L38.124 15.3242L23.1591 0ZM16.0243 7.13086L11.7515 11.4012C11.404 11.7486 11.404 12.1163 11.7515 12.4637L26.7368 27.4405L1.03898 53.1035C0.691434 53.4508 0.691434 53.8186 1.03898 54.166L4.96418 58.089C5.31172 58.4363 5.67971 58.4363 5.67971 58.089L35.9978 27.7879L31.3571 23.1498L16.3718 8.17291C16.3718 7.46459 16.2559 7.11043 16.0243 7.11043V7.13086ZM60.6121 7.13086C60.6121 7.13086 60.2645 7.13086 60.2645 7.47821L45.2793 22.4551L40.6385 27.0932L70.9566 57.3943H71.6722L75.5974 53.4713C75.9449 53.1239 75.9449 52.7561 75.5974 52.4088L49.92 26.7458L64.9053 11.769C65.2528 11.4216 65.2528 11.0539 64.9053 10.7065L60.6325 7.1513L60.6121 7.13086ZM38.1444 28.8708L33.5037 33.5089L7.82631 59.1719C7.47876 59.5192 7.47876 59.887 7.82631 60.2343L11.7515 64.1573C12.0991 64.5047 12.467 64.5047 12.8146 64.1573L38.4919 38.4944L64.1693 64.1573C64.5168 64.5047 64.8848 64.5047 65.2324 64.1573L69.1576 60.2343C69.5051 59.887 69.5051 59.5192 69.1576 59.1719L43.4802 33.5089L38.124 28.8708H38.1444Z" fill="white" fill-opacity="0.3"/>
<path d="M103.749 0C103.749 0 103.401 0 103.401 0.347349L99.476 4.27035C99.1284 4.61769 99.1284 4.98548 99.476 4.98548L119.102 24.6005L138.728 4.98548V4.27035L134.803 0.347349C134.455 0 134.087 0 133.74 0.347349L118.754 15.3242L103.769 0H103.749ZM96.9818 7.13086C96.9818 7.13086 96.6343 7.13086 96.6343 7.47821L92.7091 11.4012C92.3615 11.7486 92.3615 12.1163 92.7091 12.4637L107.694 27.4405L82.017 53.1035C81.6695 53.4508 81.6695 53.8186 82.017 54.166L85.9422 58.089C86.2897 58.4363 86.6577 58.4363 86.6577 58.089L116.976 27.7879L112.335 23.1498L97.3498 8.17291C97.3498 7.11043 97.0023 7.11043 97.0023 7.11043L96.9818 7.13086ZM141.202 7.13086C141.202 7.13086 140.854 7.13086 140.854 7.47821L125.869 22.4551L121.228 27.0932L151.546 57.3943H152.262L156.187 53.4713C156.534 53.1239 156.534 52.7561 156.187 52.4088L130.51 26.7458L145.495 11.769C145.842 11.4216 145.842 11.0539 145.495 10.7065L141.222 7.1513L141.202 7.13086ZM119.082 28.8708L114.441 33.5089L88.7634 59.1719C88.4159 59.5192 88.4159 59.887 88.7634 60.2343L92.6886 64.1573C93.0362 64.5047 93.4042 64.5047 93.7517 64.1573L119.429 38.4944L145.106 64.1573C145.454 64.5047 145.822 64.5047 146.17 64.1573L150.095 60.2343C150.442 59.887 150.442 59.5192 150.095 59.1719L124.417 33.5089L119.061 28.8708H119.082Z" fill="white" fill-opacity="0.3"/>
<path d="M184.358 0C184.358 0 184.011 0 184.011 0.347349L180.085 4.27035C179.738 4.61769 179.738 4.98548 180.085 4.98548L199.711 24.6005L219.337 4.98548V4.27035L215.412 0.347349C215.065 0 214.697 0 214.349 0.347349L199.364 15.3242L184.379 0C184.726 0 184.726 0.347349 184.379 0H184.358ZM177.591 7.13086C177.591 7.13086 177.244 7.13086 177.244 7.47821L173.318 11.4012C172.971 11.7486 172.971 12.1163 173.318 12.4637L188.304 27.4405L162.626 53.1035C162.279 53.4508 162.279 53.8186 162.626 54.166L166.552 58.089C166.899 58.4363 167.267 58.4363 167.267 58.089L197.585 27.7879L192.944 23.1498L177.959 8.17291C177.959 7.11043 177.612 7.11043 177.612 7.11043L177.591 7.13086ZM221.811 7.13086C221.811 7.13086 221.464 7.13086 221.464 7.47821L206.478 22.4551L201.838 27.0932L232.156 57.3943H232.871L236.796 53.4713C237.144 53.1239 237.144 52.7561 236.796 52.4088L211.119 26.7458L226.104 11.769C226.452 11.4216 226.452 11.0539 226.104 10.7065L221.832 7.1513C222.063 7.1513 222.063 7.1513 221.832 7.1513L221.811 7.13086ZM199.691 28.8708L195.05 33.5089L169.373 59.1719C169.025 59.5192 169.025 59.887 169.373 60.2343L173.298 64.1573C173.646 64.5047 174.014 64.5047 174.361 64.1573L200.038 38.4944L225.716 64.1573C226.063 64.5047 226.431 64.5047 226.779 64.1573L230.704 60.2343C231.052 59.887 231.052 59.5192 230.704 59.1719L205.027 33.5089L199.67 28.8708H199.691Z" fill="white" fill-opacity="0.3"/>
<path d="M264.968 0C264.968 0 264.62 0 264.62 0.347349L260.695 4.27035C260.348 4.61769 260.348 4.98548 260.695 4.98548L280.321 24.6005L299.947 4.98548V4.27035L296.022 0.347349C295.674 0 295.306 0 294.959 0.347349L279.974 15.3242L264.988 0C265.336 0 265.336 0.347349 264.988 0H264.968ZM258.201 7.13086C258.201 7.13086 257.854 7.13086 257.854 7.47821L253.928 11.4012C253.581 11.7486 253.581 12.1163 253.928 12.4637L268.914 27.4405L243.236 53.1035C242.889 53.4508 242.889 53.8186 243.236 54.166L247.161 58.089C247.509 58.4363 247.877 58.4363 247.877 58.089L278.195 27.7879L273.554 23.1498L258.569 8.17291C258.569 7.46459 258.453 7.11043 258.222 7.11043L258.201 7.13086ZM302.421 7.13086C302.421 7.13086 302.073 7.13086 302.073 7.47821L287.088 22.4551L282.447 27.0932L312.765 57.3943H313.481L317.406 53.4713C317.754 53.1239 317.754 52.7561 317.406 52.4088L291.729 26.7458L306.714 11.769C307.062 11.4216 307.062 11.0539 306.714 10.7065L302.441 7.1513C302.673 7.1513 302.673 7.1513 302.441 7.1513L302.421 7.13086ZM280.301 28.8708L275.66 33.5089L249.983 59.1719C249.635 59.5192 249.635 59.887 249.983 60.2343L253.908 64.1573C254.255 64.5047 254.623 64.5047 254.971 64.1573L280.648 38.4944L306.326 64.1573C306.673 64.5047 307.041 64.5047 307.389 64.1573L311.314 60.2343C311.661 59.887 311.661 59.5192 311.314 59.1719L285.637 33.5089L280.28 28.8708H280.301Z" fill="white" fill-opacity="0.3"/>
<path d="M345.925 0C345.925 0 345.577 0 345.577 0.347349L341.652 4.27035C341.305 4.61769 341.305 4.98548 341.652 4.98548L361.278 24.6005L380.904 4.98548V4.27035L376.979 0.347349C376.632 0 376.264 0 375.916 0.347349L360.931 15.3242L345.945 0H345.925ZM339.158 7.13086C339.158 7.13086 338.811 7.13086 338.811 7.47821L334.885 11.4012C334.538 11.7486 334.538 12.1163 334.885 12.4637L349.871 27.4405L324.193 53.1035C323.846 53.4508 323.846 53.8186 324.193 54.166L328.118 58.089C328.466 58.4363 328.834 58.4363 328.834 58.089L359.152 27.7879L354.511 23.1498L339.526 8.17291L339.179 7.11043L339.158 7.13086ZM383.378 7.13086C383.378 7.13086 383.03 7.13086 383.03 7.47821L368.045 22.4551L363.404 27.0932L393.723 57.3943H394.438L398.363 53.4713C398.711 53.1239 398.711 52.7561 398.363 52.4088L372.686 26.7458L387.671 11.769C388.019 11.4216 388.019 11.0539 387.671 10.7065L383.398 7.1513L383.378 7.13086ZM361.258 28.8708L356.617 33.5089L330.94 59.1719C330.592 59.5192 330.592 59.887 330.94 60.2343L334.865 64.1573C335.212 64.5047 335.58 64.5047 335.928 64.1573L361.605 38.4944L387.283 64.1573C387.63 64.5047 387.998 64.5047 388.346 64.1573L392.271 60.2343C392.619 59.887 392.619 59.5192 392.271 59.1719L366.594 33.5089L361.237 28.8708H361.258Z" fill="white" fill-opacity="0.3"/>
<path d="M426.535 0C426.535 0 426.187 0 426.187 0.347349L422.262 4.27035C421.915 4.61769 421.915 4.98548 422.262 4.98548L441.888 24.6005L461.514 4.98548V4.27035L457.589 0.347349C457.241 0 456.873 0 456.526 0.347349L441.541 15.3242L426.555 0H426.535ZM419.768 7.13086C419.768 7.13086 419.42 7.13086 419.42 7.47821L415.495 11.4012C415.148 11.7486 415.148 12.1163 415.495 12.4637L430.48 27.4405L404.803 53.1035C404.456 53.4508 404.456 53.8186 404.803 54.166L408.728 58.089C409.076 58.4363 409.444 58.4363 409.444 58.089L439.762 27.7879L435.121 23.1498L420.136 8.17291C420.136 7.11043 419.788 7.11043 419.788 7.11043L419.768 7.13086ZM463.988 7.13086C463.988 7.13086 463.64 7.13086 463.64 7.47821L448.655 22.4551L444.014 27.0932L474.332 57.3943H475.048L478.973 53.4713C479.321 53.1239 479.321 52.7561 478.973 52.4088L453.296 26.7458L468.281 11.769C468.629 11.4216 468.629 11.0539 468.281 10.7065L464.008 7.1513L463.988 7.13086ZM441.868 28.8708L437.227 33.5089L411.55 59.1719C411.202 59.5192 411.202 59.887 411.55 60.2343L415.475 64.1573C415.822 64.5047 416.19 64.5047 416.538 64.1573L442.215 38.4944L467.893 64.1573C468.24 64.5047 468.608 64.5047 468.956 64.1573L472.881 60.2343C473.228 59.887 473.228 59.5192 472.881 59.1719L447.203 33.5089L441.847 28.8708H441.868Z" fill="white" fill-opacity="0.3"/>
<path d="M507.124 0C507.124 0 506.777 0 506.777 0.347349L502.851 4.27035C502.504 4.61769 502.504 4.98548 502.851 4.98548L522.477 24.6005L542.103 4.98548V4.27035L538.178 0.347349C537.831 0 537.463 0 537.115 0.347349L522.13 15.3242L507.145 0C507.492 0 507.492 0.347349 507.145 0H507.124ZM500.357 7.13086C500.357 7.13086 500.01 7.13086 500.01 7.47821L496.085 11.4012C495.737 11.7486 495.737 12.1163 496.085 12.4637L511.07 27.4405L485.392 53.1035C485.045 53.4508 485.045 53.8186 485.392 54.166L489.318 58.089C489.665 58.4363 490.033 58.4363 490.033 58.089L520.351 27.7879L515.711 23.1498L500.725 8.17291C500.725 7.11043 500.378 7.11043 500.378 7.11043L500.357 7.13086ZM544.577 7.13086C544.577 7.13086 544.23 7.13086 544.23 7.47821L529.244 22.4551L524.604 26.7254L554.922 57.0265H555.637L559.562 53.1035C559.91 52.7561 559.91 52.3884 559.562 52.041L533.885 26.3781L548.87 11.4012C549.218 11.0539 549.218 10.6861 548.87 10.3387L544.945 6.41573C544.945 6.89249 544.829 7.13086 544.598 7.13086H544.577ZM522.457 28.8708L517.816 33.5089L492.139 59.1719C491.791 59.5192 491.791 59.887 492.139 60.2343L496.064 64.1573C496.412 64.5047 496.78 64.5047 497.127 64.1573L522.805 38.4944L548.482 64.1573C548.829 64.5047 549.197 64.5047 549.545 64.1573L553.47 60.2343C553.818 59.887 553.818 59.5192 553.47 59.1719L527.793 33.5089L522.437 28.8708H522.457Z" fill="white" fill-opacity="0.3"/>
<path d="M587.734 0C587.734 0 587.387 0 587.387 0.347349L583.461 4.27035C583.114 4.61769 583.114 4.98548 583.461 4.98548L603.087 24.6005L622.713 4.98548V4.27035L618.788 0.347349C618.441 0 618.073 0 617.725 0.347349L602.74 15.3242L587.754 0C588.102 0 588.102 0.347349 587.754 0H587.734ZM580.967 7.13086C580.967 7.13086 580.62 7.13086 580.62 7.47821L576.694 11.4012C576.347 11.7486 576.347 12.1163 576.694 12.4637L591.68 27.4405L566.002 53.1035C565.655 53.4508 565.655 53.8186 566.002 54.166L569.928 58.089C570.275 58.4363 570.643 58.4363 570.643 58.089L600.961 27.7879L596.32 23.1498L581.335 8.17291C581.335 7.46459 581.219 7.11043 580.988 7.11043L580.967 7.13086ZM625.187 7.13086C625.187 7.13086 624.839 7.13086 624.839 7.47821L609.854 22.4551L605.213 27.0932L635.532 57.3943H636.247L640.172 53.4713C640.52 53.1239 640.52 52.7561 640.172 52.4088L614.495 26.7458L629.48 11.769C629.828 11.4216 629.828 11.0539 629.48 10.7065L625.207 7.1513C625.439 7.1513 625.439 7.1513 625.207 7.1513L625.187 7.13086ZM603.067 28.8708L598.426 33.5089L572.749 59.1719C572.401 59.5192 572.401 59.887 572.749 60.2343L576.674 64.1573C577.022 64.5047 577.39 64.5047 577.737 64.1573L603.414 38.4944L629.092 64.1573C629.439 64.5047 629.807 64.5047 630.155 64.1573L634.08 60.2343C634.428 59.887 634.428 59.5192 634.08 59.1719L608.403 33.5089L603.046 28.8708H603.067Z" fill="white" fill-opacity="0.3"/>
<path d="M668.692 0C668.692 0 668.344 0 668.344 0.347349L664.419 4.27035C664.071 4.61769 664.071 4.98548 664.419 4.98548L684.045 24.6005L703.671 4.98548V4.27035L699.746 0.347349C699.398 0 699.03 0 698.683 0.347349L683.697 15.3242L668.712 0H668.692ZM661.925 7.13086C661.925 7.13086 661.577 7.13086 661.577 7.47821L657.652 11.4012C657.304 11.7486 657.304 12.1163 657.652 12.4637L672.637 27.4405L646.96 53.1035C646.612 53.4508 646.612 53.8186 646.96 54.166L650.885 58.089C651.233 58.4363 651.601 58.4363 651.601 58.089L681.919 27.7879L677.278 23.1498L662.293 8.17291L661.945 7.11043L661.925 7.13086ZM706.145 7.13086C706.145 7.13086 705.797 7.13086 705.797 7.47821L690.812 22.4551L686.171 27.0932L716.489 57.3943H717.205L721.13 53.4713C721.477 53.1239 721.477 52.7561 721.13 52.4088L695.452 26.7458L710.438 11.769C710.785 11.4216 710.785 11.0539 710.438 10.7065L706.165 7.1513L706.145 7.13086ZM684.024 28.8708L679.384 33.5089L653.706 59.1719C653.359 59.5192 653.359 59.887 653.706 60.2343L657.632 64.1573C657.979 64.5047 658.347 64.5047 658.695 64.1573L684.372 38.4944L710.049 64.1573C710.397 64.5047 710.765 64.5047 711.112 64.1573L715.038 60.2343C715.385 59.887 715.385 59.5192 715.038 59.1719L689.36 33.5089L684.004 28.8708H684.024Z" fill="white" fill-opacity="0.3"/>
<path d="M749.301 0C749.301 0 748.953 0 748.953 0.347349L745.028 4.27035C744.681 4.61769 744.681 4.98548 745.028 4.98548L764.654 24.6005L784.28 4.98548V4.27035L780.355 0.347349C780.007 0 779.639 0 779.292 0.347349L764.307 15.3242L749.321 0C749.669 0 749.669 0.347349 749.321 0H749.301ZM742.534 7.13086C742.534 7.13086 742.187 7.13086 742.187 7.47821L738.261 11.4012C737.914 11.7486 737.914 12.1163 738.261 12.4637L753.247 27.4405L727.569 53.1035C727.222 53.4508 727.222 53.8186 727.569 54.166L731.494 58.089C731.842 58.4363 732.21 58.4363 732.21 58.089L762.528 27.7879L757.887 23.1498L742.902 8.17291C742.902 7.11043 742.554 7.11043 742.554 7.11043L742.534 7.13086ZM786.754 7.13086C786.754 7.13086 786.406 7.13086 786.406 7.47821L771.421 22.4551L766.78 27.0932L797.098 57.3943H797.814L801.739 53.4713C802.087 53.1239 802.087 52.7561 801.739 52.4088L776.062 26.7458L791.047 11.769C791.395 11.4216 791.395 11.0539 791.047 10.7065L786.774 7.1513L786.754 7.13086ZM764.634 28.8708L759.993 33.5089L734.316 59.1719C733.968 59.5192 733.968 59.887 734.316 60.2343L738.241 64.1573C738.588 64.5047 738.956 64.5047 739.304 64.1573L764.981 38.4944L790.659 64.1573C791.006 64.5047 791.374 64.5047 791.722 64.1573L795.647 60.2343C795.994 59.887 795.994 59.5192 795.647 59.1719L769.97 33.5089L764.613 28.8708H764.634Z" fill="white" fill-opacity="0.3"/>
<path d="M23.1591 68.3662L18.8864 72.6366C18.5388 72.9839 18.5388 73.3517 18.8864 73.3517L38.5124 92.9667L58.1384 73.3517V72.6366L54.2132 68.7136C53.8657 68.3662 53.4977 68.3662 53.1501 68.7136L38.1648 83.6904L23.1796 68.3662H23.1591ZM16.0243 75.4971L11.7515 79.7674C11.404 80.1148 11.404 80.4826 11.7515 80.8299L26.7368 95.8068L1.03898 121.47C0.691434 121.817 0.691434 122.185 1.03898 122.532L4.96418 126.455C5.31172 126.803 5.67971 126.803 5.67971 126.455L35.9978 96.1541L31.3571 91.516L16.3718 76.5391C16.3718 75.8308 16.2559 75.4766 16.0243 75.4766V75.4971ZM60.6121 75.4971L45.2793 90.8213L40.6385 95.4594L70.9566 125.76H71.6722L75.5974 121.837C75.9449 121.49 75.9449 121.122 75.5974 120.775L49.92 95.1121L64.9053 80.1352C65.2528 79.7879 65.2528 79.4201 64.9053 79.0727L60.9801 75.1497L60.6325 75.4971H60.6121ZM38.1444 97.237L33.5037 101.875L7.82631 127.538C7.47876 127.885 7.47876 128.253 7.82631 128.601L11.7515 132.524C12.0991 132.871 12.467 132.871 12.8146 132.524L38.4919 106.861L64.1693 132.524C64.5168 132.871 64.8848 132.871 65.2324 132.524L69.1576 128.601C69.5051 128.253 69.5051 127.885 69.1576 127.538L43.1122 101.875L38.124 97.237H38.1444Z" fill="white" fill-opacity="0.3"/>
<path d="M103.749 68.3662L99.476 72.6366C99.1284 72.9839 99.1284 73.3517 99.476 73.3517L119.102 92.9667L138.728 73.3517V72.6366L134.803 68.7136C134.455 68.3662 134.087 68.3662 133.74 68.7136L118.754 83.6904L103.769 68.3662H103.749ZM96.9818 75.4971L92.7091 79.7674C92.3615 80.1148 92.3615 80.4826 92.7091 80.8299L107.694 95.8068L82.017 121.47C81.6695 121.817 81.6695 122.185 82.017 122.532L85.9422 126.455C86.2897 126.803 86.6577 126.803 86.6577 126.455L116.976 96.1541L112.335 91.516L97.3498 76.5391C97.3498 75.4766 97.0023 75.4766 97.0023 75.4766L96.9818 75.4971ZM141.202 75.4971L125.869 90.8213L121.228 95.4594L151.546 125.76H152.262L156.187 121.837C156.534 121.49 156.534 121.122 156.187 120.775L130.51 95.1121L145.495 80.1352C145.842 79.7879 145.842 79.4201 145.495 79.0727L141.57 75.1497C141.57 75.4971 141.222 75.4971 141.222 75.4971H141.202ZM119.082 97.237L114.441 101.875L88.7634 127.538C88.4159 127.885 88.4159 128.253 88.7634 128.601L92.6886 132.524C93.0362 132.871 93.4042 132.871 93.7517 132.524L119.429 106.861L145.106 132.524C145.454 132.871 145.822 132.871 146.17 132.524L150.095 128.601C150.442 128.253 150.442 127.885 150.095 127.538L124.417 101.875L119.061 97.237H119.082Z" fill="white" fill-opacity="0.3"/>
<path d="M184.358 68.3662L180.085 72.6366C179.737 72.9839 179.737 73.3517 180.085 73.3517L199.711 92.9667L219.337 73.3517V72.6366L215.412 68.7136C215.064 68.3662 214.696 68.3662 214.349 68.7136L199.363 83.6904L184.378 68.3662C184.726 68.3662 184.726 68.7136 184.378 68.3662H184.358ZM177.591 75.4971L173.318 79.7674C172.97 80.1148 172.97 80.4826 173.318 80.8299L188.303 95.8068L162.626 121.47C162.278 121.817 162.278 122.185 162.626 122.532L166.551 126.455C166.899 126.803 167.267 126.803 167.267 126.455L197.585 96.1541L192.944 91.516L177.959 76.5391C177.959 75.4766 177.611 75.4766 177.611 75.4766L177.591 75.4971ZM221.811 75.4971L206.478 90.8213L201.837 95.4594L232.155 125.76H232.871L236.796 121.837C237.143 121.49 237.143 121.122 236.796 120.775L211.118 95.1121L226.104 80.1352C226.451 79.7879 226.451 79.4201 226.104 79.0727L222.179 75.1497C222.179 75.3813 222.063 75.4971 221.831 75.4971H221.811ZM199.69 97.237L195.05 101.875L169.372 127.538C169.025 127.885 169.025 128.253 169.372 128.601L173.298 132.524C173.645 132.871 174.013 132.871 174.361 132.524L200.038 106.861L225.715 132.524C226.063 132.871 226.431 132.871 226.778 132.524L230.704 128.601C231.051 128.253 231.051 127.885 230.704 127.538L205.026 101.875L199.67 97.237H199.69Z" fill="white" fill-opacity="0.3"/>
<path d="M264.967 68.3662L260.695 72.6366C260.347 72.9839 260.347 73.3517 260.695 73.3517L280.321 92.9667L299.947 73.3517V72.6366L296.022 68.7136C295.674 68.3662 295.306 68.3662 294.958 68.7136L279.973 83.6904L264.988 68.3662C265.335 68.3662 265.335 68.7136 264.988 68.3662H264.967ZM258.201 75.4971L253.928 79.7674C253.58 80.1148 253.58 80.4826 253.928 80.8299L268.913 95.8068L243.236 121.47C242.888 121.817 242.888 122.185 243.236 122.532L247.161 126.455C247.508 126.803 247.876 126.803 247.876 126.455L278.195 96.1541L273.554 91.516L258.569 76.5391C258.569 75.8308 258.453 75.4766 258.221 75.4766L258.201 75.4971ZM302.42 75.4971L287.088 90.8213L282.447 95.4594L312.765 125.76H313.481L317.406 121.837C317.753 121.49 317.753 121.122 317.406 120.775L291.728 95.1121L306.714 80.1352C307.061 79.7879 307.061 79.4201 306.714 79.0727L302.788 75.1497C302.788 75.3813 302.673 75.4971 302.441 75.4971H302.42ZM280.3 97.237L275.66 101.875L249.982 127.538C249.635 127.885 249.635 128.253 249.982 128.601L253.907 132.524C254.255 132.871 254.623 132.871 254.97 132.524L280.648 106.861L306.325 132.524C306.673 132.871 307.041 132.871 307.388 132.524L311.313 128.601C311.661 128.253 311.661 127.885 311.313 127.538L285.636 101.875L280.28 97.237H280.3Z" fill="white" fill-opacity="0.3"/>
<path d="M345.925 68.3662L341.652 72.6366C341.305 72.9839 341.305 73.3517 341.652 73.3517L361.278 92.9667L380.904 73.3517V72.6366L376.979 68.7136C376.632 68.3662 376.264 68.3662 375.916 68.7136L360.931 83.6904L345.945 68.3662H345.925ZM339.158 75.4971L334.885 79.7674C334.538 80.1148 334.538 80.4826 334.885 80.8299L349.871 95.8068L324.193 121.47C323.846 121.817 323.846 122.185 324.193 122.532L328.118 126.455C328.466 126.803 328.834 126.803 328.834 126.455L359.152 96.1541L354.511 91.516L339.526 76.5391L339.179 75.4766L339.158 75.4971ZM383.378 75.4971L368.045 90.8213L363.404 95.4594L393.723 125.76H394.438L398.363 121.837C398.711 121.49 398.711 121.122 398.363 120.775L372.686 95.1121L387.671 80.1352C388.019 79.7879 388.019 79.4201 387.671 79.0727L383.746 75.1497C383.746 75.4971 383.398 75.4971 383.398 75.4971H383.378ZM361.258 97.237L356.617 101.875L330.94 127.538C330.592 127.885 330.592 128.253 330.94 128.601L334.865 132.524C335.212 132.871 335.58 132.871 335.928 132.524L361.605 106.861L387.283 132.524C387.63 132.871 387.998 132.871 388.346 132.524L392.271 128.601C392.619 128.253 392.619 127.885 392.271 127.538L366.594 101.875L361.237 97.237H361.258Z" fill="white" fill-opacity="0.3"/>
<path d="M426.535 68.3662L422.262 72.6366C421.915 72.9839 421.915 73.3517 422.262 73.3517L441.888 92.9667L461.514 73.3517V72.6366L457.589 68.7136C457.241 68.3662 456.873 68.3662 456.526 68.7136L441.541 83.6904L426.555 68.3662H426.535ZM419.768 75.4971L415.495 79.7674C415.148 80.1148 415.148 80.4826 415.495 80.8299L430.48 95.8068L404.803 121.47C404.456 121.817 404.456 122.185 404.803 122.532L408.728 126.455C409.076 126.803 409.444 126.803 409.444 126.455L439.762 96.1541L435.121 91.516L420.136 76.5391C420.136 75.4766 419.788 75.4766 419.788 75.4766L419.768 75.4971ZM463.988 75.4971L448.655 90.8213L444.014 95.4594L474.332 125.76H475.048L478.973 121.837C479.321 121.49 479.321 121.122 478.973 120.775L453.296 95.1121L468.281 80.1352C468.629 79.7879 468.629 79.4201 468.281 79.0727L464.356 75.1497C464.356 75.4971 464.008 75.4971 464.008 75.4971H463.988ZM441.868 97.237L437.227 101.875L411.55 127.538C411.202 127.885 411.202 128.253 411.55 128.601L415.475 132.524C415.822 132.871 416.19 132.871 416.538 132.524L442.215 106.861L467.893 132.524C468.24 132.871 468.608 132.871 468.956 132.524L472.881 128.601C473.228 128.253 473.228 127.885 472.881 127.538L447.203 101.875L441.847 97.237H441.868Z" fill="white" fill-opacity="0.3"/>
<path d="M507.124 68.3662L502.851 72.6366C502.504 72.9839 502.504 73.3517 502.851 73.3517L522.477 92.9667L542.103 73.3517V72.6366L538.178 68.7136C537.831 68.3662 537.463 68.3662 537.115 68.7136L522.13 83.6904L507.145 68.3662C507.492 68.3662 507.492 68.7136 507.145 68.3662H507.124ZM500.357 75.4971L496.085 79.7674C495.737 80.1148 495.737 80.4826 496.085 80.8299L511.07 95.8068L485.392 121.47C485.045 121.817 485.045 122.185 485.392 122.532L489.318 126.455C489.665 126.803 490.033 126.803 490.033 126.455L520.351 96.1541L515.711 91.516L500.725 76.5391C500.725 75.4766 500.378 75.4766 500.378 75.4766L500.357 75.4971ZM544.577 75.4971L529.244 90.8213L524.604 95.4594L554.922 125.76H555.637L559.562 121.837C559.91 121.49 559.91 121.122 559.562 120.775L533.885 95.1121L548.87 80.1352C549.218 79.7879 549.218 79.4201 548.87 79.0727L544.945 75.1497C544.945 75.3813 544.829 75.4971 544.598 75.4971H544.577ZM522.457 97.237L517.816 101.875L492.139 127.538C491.791 127.885 491.791 128.253 492.139 128.601L496.064 132.524C496.412 132.871 496.78 132.871 497.127 132.524L522.805 106.861L548.482 132.524C548.829 132.871 549.197 132.871 549.545 132.524L553.47 128.601C553.818 128.253 553.818 127.885 553.47 127.538L527.793 101.875L522.437 97.237H522.457Z" fill="white" fill-opacity="0.3"/>
<path d="M587.734 68.3662L583.461 72.6366C583.114 72.9839 583.114 73.3517 583.461 73.3517L603.087 92.9667L622.713 73.3517V72.6366L618.788 68.7136C618.441 68.3662 618.073 68.3662 617.725 68.7136L602.74 83.6904L587.754 68.3662C588.102 68.3662 588.102 68.7136 587.754 68.3662H587.734ZM580.967 75.4971L576.694 79.7674C576.347 80.1148 576.347 80.4826 576.694 80.8299L591.68 95.8068L566.002 121.47C565.655 121.817 565.655 122.185 566.002 122.532L569.928 126.455C570.275 126.803 570.643 126.803 570.643 126.455L600.961 96.1541L596.32 91.516L581.335 76.5391C581.335 75.8308 581.219 75.4766 580.988 75.4766L580.967 75.4971ZM625.187 75.4971L609.854 90.8213L605.213 95.4594L635.532 125.76H636.247L640.172 121.837C640.52 121.49 640.52 121.122 640.172 120.775L614.495 95.1121L629.48 80.1352C629.828 79.7879 629.828 79.4201 629.48 79.0727L625.555 75.1497C625.555 75.3813 625.439 75.4971 625.207 75.4971H625.187ZM603.067 97.237L598.426 101.875L572.749 127.538C572.401 127.885 572.401 128.253 572.749 128.601L576.674 132.524C577.022 132.871 577.39 132.871 577.737 132.524L603.414 106.861L629.092 132.524C629.439 132.871 629.807 132.871 630.155 132.524L634.08 128.601C634.428 128.253 634.428 127.885 634.08 127.538L608.403 101.875L603.046 97.237H603.067Z" fill="white" fill-opacity="0.3"/>
<path d="M668.692 68.3662L664.419 72.6366C664.071 72.9839 664.071 73.3517 664.419 73.3517L684.045 92.9667L703.671 73.3517V72.6366L699.746 68.7136C699.398 68.3662 699.03 68.3662 698.683 68.7136L683.697 83.6904L668.712 68.3662H668.692ZM661.925 75.4971L657.652 79.7674C657.304 80.1148 657.304 80.4826 657.652 80.8299L672.637 95.8068L646.96 121.47C646.612 121.817 646.612 122.185 646.96 122.532L650.885 126.455C651.233 126.803 651.601 126.803 651.601 126.455L681.919 96.1541L677.278 91.516L662.293 76.5391L661.945 75.4766L661.925 75.4971ZM706.145 75.4971L690.812 90.8213L686.171 95.4594L716.489 125.76H717.205L721.13 121.837C721.477 121.49 721.477 121.122 721.13 120.775L695.452 95.1121L710.438 80.1352C710.785 79.7879 710.785 79.4201 710.438 79.0727L706.513 75.1497C706.513 75.4971 706.165 75.4971 706.165 75.4971H706.145ZM684.024 97.237L679.384 101.875L653.706 127.538C653.359 127.885 653.359 128.253 653.706 128.601L657.632 132.524C657.979 132.871 658.347 132.871 658.695 132.524L684.372 106.861L710.049 132.524C710.397 132.871 710.765 132.871 711.112 132.524L715.038 128.601C715.385 128.253 715.385 127.885 715.038 127.538L688.645 101.875L684.004 97.237H684.024Z" fill="white" fill-opacity="0.3"/>
<path d="M749.301 68.3662L745.028 72.6366C744.681 72.9839 744.681 73.3517 745.028 73.3517L764.654 92.9667L784.28 73.3517V72.6366L780.355 68.7136C780.007 68.3662 779.639 68.3662 779.292 68.7136L764.307 83.6904L749.321 68.3662C749.669 68.3662 749.669 68.7136 749.321 68.3662H749.301ZM742.534 75.4971L738.261 79.7674C737.914 80.1148 737.914 80.4826 738.261 80.8299L753.247 95.8068L727.569 121.47C727.222 121.817 727.222 122.185 727.569 122.532L731.494 126.455C731.842 126.803 732.21 126.803 732.21 126.455L762.528 96.1541L757.887 91.516L742.902 76.5391C742.902 75.4766 742.554 75.4766 742.554 75.4766L742.534 75.4971ZM786.754 75.4971L771.421 90.8213L766.78 95.4594L797.098 125.76H797.814L801.739 121.837C802.087 121.49 802.087 121.122 801.739 120.775L776.062 95.1121L791.047 80.1352C791.395 79.7879 791.395 79.4201 791.047 79.0727L787.122 75.1497C787.122 75.4971 786.774 75.4971 786.774 75.4971H786.754ZM764.634 97.237L759.993 101.875L734.316 127.538C733.968 127.885 733.968 128.253 734.316 128.601L738.241 132.524C738.588 132.871 738.956 132.871 739.304 132.524L764.981 106.861L790.659 132.524C791.006 132.871 791.374 132.871 791.722 132.524L795.647 128.601C795.994 128.253 795.994 127.885 795.647 127.538L769.97 101.875L764.613 97.237H764.634Z" fill="white" fill-opacity="0.3"/>
<path d="M23.1591 136.978L18.8864 141.248C18.5388 141.595 18.5388 141.963 18.8864 141.963L38.5124 161.578L58.1384 141.963V141.248L54.2132 137.325C53.8657 136.978 53.4977 136.978 53.1501 137.325L38.1648 152.302L23.1796 136.978H23.1591ZM16.0243 143.741L11.7515 148.011C11.404 148.358 11.404 148.726 11.7515 149.073L26.7368 164.05L1.03898 189.734C0.691434 190.081 0.691434 190.449 1.03898 190.796L4.96418 194.719C5.31172 195.067 5.67971 195.067 5.67971 194.719L35.9978 164.418L31.3571 159.78L16.3718 144.803C16.3718 144.095 16.2559 143.741 16.0243 143.741ZM60.6121 143.741C60.6121 143.741 60.2645 143.741 60.2645 144.088L45.2793 159.065L40.6385 163.703L70.9566 194.004H71.6722L75.5974 190.081C75.9449 189.734 75.9449 189.366 75.5974 189.019L49.92 163.356L64.9053 148.379C65.2528 148.031 65.2528 147.664 64.9053 147.316L60.9801 143.393L60.6325 143.741H60.6121ZM38.1444 165.481L33.5037 170.119L7.82631 195.782C7.47876 196.129 7.47876 196.497 7.82631 196.844L11.7515 200.767C12.0991 201.114 12.467 201.114 12.8146 200.767L38.4919 175.104L64.1693 200.767C64.5168 201.114 64.8848 201.114 65.2324 200.767L69.1576 196.844C69.5051 196.497 69.5051 196.129 69.1576 195.782L43.4802 170.119L38.124 165.481H38.1444Z" fill="white" fill-opacity="0.3"/>
<path d="M103.749 136.978C103.749 136.978 103.401 136.978 103.401 137.325L99.476 141.248C99.1284 141.595 99.1284 141.963 99.476 141.963L119.102 161.578L138.728 141.963V141.248L134.803 137.325C134.455 136.978 134.087 136.978 133.74 137.325L118.754 152.302L103.769 136.978H103.749ZM96.9818 143.741C96.9818 143.741 96.6343 143.741 96.6343 144.088L92.7091 148.011C92.3615 148.358 92.3615 148.726 92.7091 149.073L107.694 164.05L82.017 189.713C81.6695 190.061 81.6695 190.428 82.017 190.776L85.9422 194.699C86.2897 195.046 86.6577 195.046 86.6577 194.699L116.976 164.398L112.335 159.76L97.3498 144.783C97.3498 143.72 97.0023 143.72 97.0023 143.72L96.9818 143.741ZM141.202 143.741C141.202 143.741 140.854 143.741 140.854 144.088L125.869 159.065L121.228 163.703L151.546 194.004H152.262L156.187 190.081C156.534 189.734 156.534 189.366 156.187 189.019L130.51 163.356L145.495 148.379C145.842 148.031 145.842 147.664 145.495 147.316L141.57 143.393C141.57 143.741 141.222 143.741 141.222 143.741H141.202ZM119.082 165.481L114.441 170.119L88.7634 195.782C88.4159 196.129 88.4159 196.497 88.7634 196.844L92.6886 200.767C93.0362 201.114 93.4042 201.114 93.7517 200.767L119.429 175.104L145.106 200.767C145.454 201.114 145.822 201.114 146.17 200.767L150.095 196.844C150.442 196.497 150.442 196.129 150.095 195.782L124.417 170.119L119.061 165.481H119.082Z" fill="white" fill-opacity="0.3"/>
<path d="M184.358 136.978C184.358 136.978 184.01 136.978 184.01 137.325L180.085 141.248C179.737 141.595 179.737 141.963 180.085 141.963L199.711 161.578L219.337 141.963V141.248L215.412 137.325C215.064 136.978 214.696 136.978 214.349 137.325L199.363 152.302L184.378 136.978C184.61 136.978 184.61 136.978 184.378 136.978H184.358ZM177.591 143.741C177.591 143.741 177.243 143.741 177.243 144.088L173.318 148.011C172.97 148.358 172.97 148.726 173.318 149.073L188.303 164.05L162.626 189.713C162.278 190.061 162.278 190.428 162.626 190.776L166.551 194.699C166.899 195.046 167.267 195.046 167.267 194.699L197.585 164.398L192.944 159.76L177.959 144.783C177.959 143.72 177.611 143.72 177.611 143.72L177.591 143.741ZM221.811 143.741C221.811 143.741 221.463 143.741 221.463 144.088L206.478 159.065L201.837 163.703L232.155 194.004H232.871L236.796 190.081C237.143 189.734 237.143 189.366 236.796 189.019L211.118 163.356L226.104 148.379C226.451 148.031 226.451 147.664 226.104 147.316L222.179 143.393C222.179 143.625 222.063 143.741 221.831 143.741H221.811ZM199.69 165.481L195.05 170.119L169.372 195.782C169.025 196.129 169.025 196.497 169.372 196.844L173.298 200.767C173.645 201.114 174.013 201.114 174.361 200.767L200.038 175.104L225.715 200.767C226.063 201.114 226.431 201.114 226.778 200.767L230.704 196.844C231.051 196.497 231.051 196.129 230.704 195.782L205.026 170.119L199.67 165.481H199.69Z" fill="white" fill-opacity="0.3"/>
<path d="M264.967 136.978C264.967 136.978 264.62 136.978 264.62 137.325L260.695 141.248C260.347 141.595 260.347 141.963 260.695 141.963L280.321 161.578L299.947 141.963V141.248L296.022 137.325C295.674 136.978 295.306 136.978 294.958 137.325L279.973 152.302L264.988 136.978C265.22 136.978 265.22 136.978 264.988 136.978H264.967ZM258.201 143.741C258.201 143.741 257.853 143.741 257.853 144.088L253.928 148.011C253.58 148.358 253.58 148.726 253.928 149.073L268.913 164.05L243.236 189.713C242.888 190.061 242.888 190.428 243.236 190.776L247.161 194.699C247.508 195.046 247.876 195.046 247.876 194.699L278.195 164.398L273.554 159.76L258.569 144.783C258.569 144.074 258.453 143.72 258.221 143.72L258.201 143.741ZM302.42 143.741C302.42 143.741 302.073 143.741 302.073 144.088L287.088 159.065L282.447 163.703L312.765 194.004H313.481L317.406 190.081C317.753 189.734 317.753 189.366 317.406 189.019L291.728 163.356L306.714 148.379C307.061 148.031 307.061 147.664 306.714 147.316L302.788 143.393C302.788 143.625 302.673 143.741 302.441 143.741H302.42ZM280.3 165.481L275.66 170.119L249.982 195.782C249.635 196.129 249.635 196.497 249.982 196.844L253.907 200.767C254.255 201.114 254.623 201.114 254.97 200.767L280.648 175.104L306.325 200.767C306.673 201.114 307.041 201.114 307.388 200.767L311.313 196.844C311.661 196.497 311.661 196.129 311.313 195.782L285.636 170.119L280.28 165.481H280.3Z" fill="white" fill-opacity="0.3"/>
<path d="M345.925 136.978C345.925 136.978 345.577 136.978 345.577 137.325L341.652 141.248C341.305 141.595 341.305 141.963 341.652 141.963L361.278 161.578L380.904 141.963V141.248L376.979 137.325C376.632 136.978 376.264 136.978 375.916 137.325L360.931 152.302L345.945 136.978H345.925ZM339.158 143.741C339.158 143.741 338.811 143.741 338.811 144.088L334.885 148.011C334.538 148.358 334.538 148.726 334.885 149.073L349.871 164.05L324.193 189.713C323.846 190.061 323.846 190.428 324.193 190.776L328.118 194.699C328.466 195.046 328.834 195.046 328.834 194.699L359.152 164.398L354.511 159.76L339.526 144.783L339.179 143.72L339.158 143.741ZM383.378 143.741C383.378 143.741 383.03 143.741 383.03 144.088L368.045 159.065L363.404 163.703L393.723 194.004H394.438L398.363 190.081C398.711 189.734 398.711 189.366 398.363 189.019L372.686 163.356L387.671 148.379C388.019 148.031 388.019 147.664 387.671 147.316L383.746 143.393C383.746 143.741 383.398 143.741 383.398 143.741H383.378ZM361.258 165.481L356.617 170.119L330.94 195.782C330.592 196.129 330.592 196.497 330.94 196.844L334.865 200.767C335.212 201.114 335.58 201.114 335.928 200.767L361.605 175.104L387.283 200.767C387.63 201.114 387.998 201.114 388.346 200.767L392.271 196.844C392.619 196.497 392.619 196.129 392.271 195.782L366.594 170.119L361.237 165.481H361.258Z" fill="white" fill-opacity="0.3"/>
<path d="M426.535 136.978C426.535 136.978 426.187 136.978 426.187 137.325L422.262 141.248C421.915 141.595 421.915 141.963 422.262 141.963L441.888 161.578L461.514 141.963V141.248L457.589 137.325C457.241 136.978 456.873 136.978 456.526 137.325L441.541 152.302L426.555 136.978H426.535ZM419.768 143.741C419.768 143.741 419.42 143.741 419.42 144.088L415.495 148.011C415.148 148.358 415.148 148.726 415.495 149.073L430.48 164.05L404.803 189.713C404.456 190.061 404.456 190.428 404.803 190.776L408.728 194.699C409.076 195.046 409.444 195.046 409.444 194.699L439.762 164.398L435.121 159.76L420.136 144.783C420.136 143.72 419.788 143.72 419.788 143.72L419.768 143.741ZM463.988 143.741C463.988 143.741 463.64 143.741 463.64 144.088L448.655 159.065L444.014 163.703L474.332 194.004H475.048L478.973 190.081C479.321 189.734 479.321 189.366 478.973 189.019L453.296 163.356L468.281 148.379C468.629 148.031 468.629 147.664 468.281 147.316L464.356 143.393C464.356 143.741 464.008 143.741 464.008 143.741H463.988ZM441.868 165.481L437.227 170.119L411.55 195.782C411.202 196.129 411.202 196.497 411.55 196.844L415.475 200.767C415.822 201.114 416.19 201.114 416.538 200.767L442.215 175.104L467.893 200.767C468.24 201.114 468.608 201.114 468.956 200.767L472.881 196.844C473.228 196.497 473.228 196.129 472.881 195.782L447.203 170.119L441.847 165.481H441.868Z" fill="white" fill-opacity="0.3"/>
<path d="M507.124 136.978C507.124 136.978 506.777 136.978 506.777 137.325L502.851 141.248C502.504 141.595 502.504 141.963 502.851 141.963L522.477 161.578L542.103 141.963V141.248L538.178 137.325C537.831 136.978 537.463 136.978 537.115 137.325L522.13 152.302L507.145 136.978C507.376 136.978 507.376 136.978 507.145 136.978H507.124ZM500.357 143.741C500.357 143.741 500.01 143.741 500.01 144.088L496.085 148.011C495.737 148.358 495.737 148.726 496.085 149.073L511.07 164.05L485.392 189.713C485.045 190.061 485.045 190.428 485.392 190.776L489.318 194.699C489.665 195.046 490.033 195.046 490.033 194.699L520.351 164.398L515.711 159.76L500.725 144.783C500.725 143.72 500.378 143.72 500.378 143.72L500.357 143.741ZM544.577 143.741C544.577 143.741 544.23 143.741 544.23 144.088L529.244 159.065L524.604 163.703L554.922 194.004H555.637L559.562 190.081C559.91 189.734 559.91 189.366 559.562 189.019L533.885 163.356L548.87 148.379C549.218 148.031 549.218 147.664 548.87 147.316L544.945 143.393C544.945 143.625 544.829 143.741 544.598 143.741H544.577ZM522.457 165.481L517.816 170.119L492.139 195.782C491.791 196.129 491.791 196.497 492.139 196.844L496.064 200.767C496.412 201.114 496.78 201.114 497.127 200.767L522.805 175.104L548.482 200.767C548.829 201.114 549.197 201.114 549.545 200.767L553.47 196.844C553.818 196.497 553.818 196.129 553.47 195.782L527.793 170.119L522.437 165.481H522.457Z" fill="white" fill-opacity="0.3"/>
<path d="M587.734 136.978C587.734 136.978 587.387 136.978 587.387 137.325L583.461 141.248C583.114 141.595 583.114 141.963 583.461 141.963L603.087 161.578L622.713 141.963V141.248L618.788 137.325C618.441 136.978 618.073 136.978 617.725 137.325L602.74 152.302L587.754 136.978C587.986 136.978 587.986 136.978 587.754 136.978H587.734ZM580.967 143.741C580.967 143.741 580.62 143.741 580.62 144.088L576.694 148.011C576.347 148.358 576.347 148.726 576.694 149.073L591.68 164.05L566.002 189.713C565.655 190.061 565.655 190.428 566.002 190.776L569.928 194.699C570.275 195.046 570.643 195.046 570.643 194.699L600.961 164.398L596.32 159.76L581.335 144.783C581.335 144.074 581.219 143.72 580.988 143.72L580.967 143.741ZM625.187 143.741C625.187 143.741 624.839 143.741 624.839 144.088L609.854 159.065L605.213 163.703L635.532 194.004H636.247L640.172 190.081C640.52 189.734 640.52 189.366 640.172 189.019L614.495 163.356L629.48 148.379C629.828 148.031 629.828 147.664 629.48 147.316L625.555 143.393C625.555 143.625 625.439 143.741 625.207 143.741H625.187ZM603.067 165.481L598.426 170.119L572.749 195.782C572.401 196.129 572.401 196.497 572.749 196.844L576.674 200.767C577.022 201.114 577.39 201.114 577.737 200.767L603.414 175.104L629.092 200.767C629.439 201.114 629.807 201.114 630.155 200.767L634.08 196.844C634.428 196.497 634.428 196.129 634.08 195.782L608.403 170.119L603.046 165.481H603.067Z" fill="white" fill-opacity="0.3"/>
<path d="M668.692 136.978C668.692 136.978 668.344 136.978 668.344 137.325L664.419 141.248C664.071 141.595 664.071 141.963 664.419 141.963L684.045 161.578L703.671 141.963V141.248L699.746 137.325C699.398 136.978 699.03 136.978 698.683 137.325L683.697 152.302L668.712 136.978H668.692ZM661.925 143.741C661.925 143.741 661.577 143.741 661.577 144.088L657.652 148.011C657.304 148.358 657.304 148.726 657.652 149.073L672.637 164.05L646.96 189.713C646.612 190.061 646.612 190.428 646.96 190.776L650.885 194.699C651.233 195.046 651.601 195.046 651.601 194.699L681.919 164.398L677.278 159.76L662.293 144.783L661.945 143.72L661.925 143.741ZM706.145 143.741C706.145 143.741 705.797 143.741 705.797 144.088L690.812 159.065L686.171 163.703L716.489 194.004H717.205L721.13 190.081C721.477 189.734 721.477 189.366 721.13 189.019L695.452 163.356L710.438 148.379C710.785 148.031 710.785 147.664 710.438 147.316L706.513 143.393C706.513 143.741 706.165 143.741 706.165 143.741H706.145ZM684.024 165.481L679.384 170.119L653.706 195.782C653.359 196.129 653.359 196.497 653.706 196.844L657.632 200.767C657.979 201.114 658.347 201.114 658.695 200.767L684.372 175.104L710.049 200.767C710.397 201.114 710.765 201.114 711.112 200.767L715.038 196.844C715.385 196.497 715.385 196.129 715.038 195.782L689.36 170.119L684.004 165.481H684.024Z" fill="white" fill-opacity="0.3"/>
<path d="M749.301 136.978C749.301 136.978 748.953 136.978 748.953 137.325L745.028 141.248C744.681 141.595 744.681 141.963 745.028 141.963L764.654 161.578L784.28 141.963V141.248L780.355 137.325C780.007 136.978 779.639 136.978 779.292 137.325L764.307 152.302L749.321 136.978C749.553 136.978 749.553 136.978 749.321 136.978H749.301ZM742.534 143.741C742.534 143.741 742.187 143.741 742.187 144.088L738.261 148.011C737.914 148.358 737.914 148.726 738.261 149.073L753.247 164.05L727.569 189.713C727.222 190.061 727.222 190.428 727.569 190.776L731.494 194.699C731.842 195.046 732.21 195.046 732.21 194.699L762.528 164.398L757.887 159.76L742.902 144.783C742.902 143.72 742.554 143.72 742.554 143.72L742.534 143.741ZM786.754 143.741C786.754 143.741 786.406 143.741 786.406 144.088L771.421 159.065L766.78 163.703L797.098 194.004H797.814L801.739 190.081C802.087 189.734 802.087 189.366 801.739 189.019L776.062 163.356L791.047 148.379C791.395 148.031 791.395 147.664 791.047 147.316L787.122 143.393C787.122 143.741 786.774 143.741 786.774 143.741H786.754ZM764.634 165.481L759.993 170.119L734.316 195.782C733.968 196.129 733.968 196.497 734.316 196.844L738.241 200.767C738.588 201.114 738.956 201.114 739.304 200.767L764.981 175.104L790.659 200.767C791.006 201.114 791.374 201.114 791.722 200.767L795.647 196.844C795.994 196.497 795.994 196.129 795.647 195.782L769.97 170.119L764.613 165.481H764.634Z" fill="white" fill-opacity="0.3"/>
<path d="M23.1591 205.018L18.8864 209.288C18.5388 209.635 18.5388 210.003 18.8864 210.003L38.5124 229.618L58.1384 210.003V209.288L54.2132 205.365C53.8657 205.018 53.4977 205.018 53.1501 205.365L38.1648 220.342L23.1796 205.018H23.1591ZM16.0243 212.148L11.7515 216.419C11.404 216.766 11.404 217.134 11.7515 217.481L26.7368 232.458L1.03898 258.141C0.691434 258.489 0.691434 258.857 1.03898 259.204L4.96418 263.127C5.31172 263.474 5.67971 263.474 5.67971 263.127L35.9978 232.826L31.3571 228.188L16.3718 213.211C16.3718 212.503 16.2559 212.148 16.0243 212.148ZM60.6121 212.148C60.6121 212.148 60.2645 212.148 60.2645 212.496L45.2793 227.473L40.6385 232.111L70.9566 262.412H71.6722L75.5974 258.489C75.9449 258.142 75.9449 257.774 75.5974 257.426L49.92 231.763L64.9053 216.787C65.2528 216.439 65.2528 216.071 64.9053 215.724L60.9801 211.801L60.6325 212.148H60.6121ZM38.1444 233.888L33.5037 238.527L7.82631 264.189C7.47876 264.537 7.47876 264.905 7.82631 265.252L11.7515 269.175C12.0991 269.522 12.467 269.522 12.8146 269.175L38.4919 243.512L64.1693 269.175C64.5168 269.522 64.8848 269.522 65.2324 269.175L69.1576 265.252C69.5051 264.905 69.5051 264.537 69.1576 264.189L43.4802 238.527L38.124 233.888H38.1444Z" fill="white" fill-opacity="0.3"/>
<path d="M103.749 205.018C103.749 205.018 103.401 205.018 103.401 205.365L99.476 209.288C99.1284 209.635 99.1284 210.003 99.476 210.003L119.102 229.618L138.728 210.003V209.288L134.803 205.365C134.455 205.018 134.087 205.018 133.74 205.365L118.754 220.342L103.769 205.018H103.749ZM96.9818 212.148C96.9818 212.148 96.6343 212.148 96.6343 212.496L92.7091 216.419C92.3615 216.766 92.3615 217.134 92.7091 217.481L107.694 232.458L82.017 258.121C81.6695 258.468 81.6695 258.836 82.017 259.184L85.9422 263.107C86.2897 263.454 86.6577 263.454 86.6577 263.107L116.976 232.805L112.335 228.167L97.3498 213.19C97.3498 212.128 97.0023 212.128 97.0023 212.128L96.9818 212.148ZM141.202 212.148C141.202 212.148 140.854 212.148 140.854 212.496L125.869 227.473L121.228 232.111L151.546 262.412H152.262L156.187 258.489C156.534 258.142 156.534 257.774 156.187 257.426L130.51 231.763L145.495 216.787C145.842 216.439 145.842 216.071 145.495 215.724L141.57 211.801C141.57 212.148 141.222 212.148 141.222 212.148H141.202ZM119.082 233.888L114.441 238.527L88.7634 264.189C88.4159 264.537 88.4159 264.905 88.7634 265.252L92.6886 269.175C93.0362 269.522 93.4042 269.522 93.7517 269.175L119.429 243.512L145.106 269.175C145.454 269.522 145.822 269.522 146.17 269.175L150.095 265.252C150.442 264.905 150.442 264.537 150.095 264.189L124.417 238.527L119.061 233.888H119.082Z" fill="white" fill-opacity="0.3"/>
<path d="M184.358 205.018C184.358 205.018 184.01 205.018 184.01 205.365L180.085 209.288C179.737 209.635 179.737 210.003 180.085 210.003L199.711 229.618L219.337 210.003V209.288L215.412 205.365C215.064 205.018 214.696 205.018 214.349 205.365L199.363 220.342L184.378 205.018C184.726 205.018 184.726 205.365 184.378 205.018H184.358ZM177.591 212.148C177.591 212.148 177.243 212.148 177.243 212.496L173.318 216.419C172.97 216.766 172.97 217.134 173.318 217.481L188.303 232.458L162.626 258.121C162.278 258.468 162.278 258.836 162.626 259.184L166.551 263.107C166.899 263.454 167.267 263.454 167.267 263.107L197.585 232.805L192.944 228.167L177.959 213.19C177.959 212.128 177.611 212.128 177.611 212.128L177.591 212.148ZM221.811 212.148C221.811 212.148 221.463 212.148 221.463 212.496L206.478 227.473L201.837 232.111L232.155 262.412H232.871L236.796 258.489C237.143 258.142 237.143 257.774 236.796 257.426L211.118 231.763L226.104 216.787C226.451 216.439 226.451 216.071 226.104 215.724L222.179 211.801C222.179 212.033 222.063 212.148 221.831 212.148H221.811ZM199.69 233.888L195.05 238.527L169.372 264.189C169.025 264.537 169.025 264.905 169.372 265.252L173.298 269.175C173.645 269.522 174.013 269.522 174.361 269.175L200.038 243.512L225.715 269.175C226.063 269.522 226.431 269.522 226.778 269.175L230.704 265.252C231.051 264.905 231.051 264.537 230.704 264.189L205.026 238.527L199.67 233.888H199.69Z" fill="white" fill-opacity="0.3"/>
<path d="M264.967 205.018C264.967 205.018 264.62 205.018 264.62 205.365L260.695 209.288C260.347 209.635 260.347 210.003 260.695 210.003L280.321 229.618L299.947 210.003V209.288L296.022 205.365C295.674 205.018 295.306 205.018 294.958 205.365L279.973 220.342L264.988 205.018C265.335 205.018 265.335 205.365 264.988 205.018H264.967ZM258.201 212.148C258.201 212.148 257.853 212.148 257.853 212.496L253.928 216.419C253.58 216.766 253.58 217.134 253.928 217.481L268.913 232.458L243.236 258.121C242.888 258.468 242.888 258.836 243.236 259.184L247.161 263.107C247.508 263.454 247.876 263.454 247.876 263.107L278.195 232.805L273.554 228.167L258.569 213.19C258.569 212.482 258.453 212.128 258.221 212.128L258.201 212.148ZM302.42 212.148C302.42 212.148 302.073 212.148 302.073 212.496L287.088 227.473L282.447 232.111L312.765 262.412H313.481L317.406 258.489C317.753 258.142 317.753 257.774 317.406 257.426L291.728 231.763L306.714 216.787C307.061 216.439 307.061 216.071 306.714 215.724L302.788 211.801C302.788 212.033 302.673 212.148 302.441 212.148H302.42ZM280.3 233.888L275.66 238.527L249.982 264.189C249.635 264.537 249.635 264.905 249.982 265.252L253.907 269.175C254.255 269.522 254.623 269.522 254.97 269.175L280.648 243.512L306.325 269.175C306.673 269.522 307.041 269.522 307.388 269.175L311.313 265.252C311.661 264.905 311.661 264.537 311.313 264.189L285.636 238.527L280.28 233.888H280.3Z" fill="white" fill-opacity="0.3"/>
<path d="M345.925 205.018C345.925 205.018 345.577 205.018 345.577 205.365L341.652 209.288C341.305 209.635 341.305 210.003 341.652 210.003L361.278 229.618L380.904 210.003V209.288L376.979 205.365C376.632 205.018 376.264 205.018 375.916 205.365L360.931 220.342L345.945 205.018H345.925ZM339.158 212.148C339.158 212.148 338.811 212.148 338.811 212.496L334.885 216.419C334.538 216.766 334.538 217.134 334.885 217.481L349.871 232.458L324.193 258.121C323.846 258.468 323.846 258.836 324.193 259.184L328.118 263.107C328.466 263.454 328.834 263.454 328.834 263.107L359.152 232.805L354.511 228.167L339.526 213.19L339.179 212.128L339.158 212.148ZM383.378 212.148C383.378 212.148 383.03 212.148 383.03 212.496L368.045 227.473L363.404 232.111L393.723 262.412H394.438L398.363 258.489C398.711 258.142 398.711 257.774 398.363 257.426L372.686 231.763L387.671 216.787C388.019 216.439 388.019 216.071 387.671 215.724L383.746 211.801C383.746 212.148 383.398 212.148 383.398 212.148H383.378ZM361.258 233.888L356.617 238.527L330.94 264.189C330.592 264.537 330.592 264.905 330.94 265.252L334.865 269.175C335.212 269.522 335.58 269.522 335.928 269.175L361.605 243.512L387.283 269.175C387.63 269.522 387.998 269.522 388.346 269.175L392.271 265.252C392.619 264.905 392.619 264.537 392.271 264.189L366.594 238.527L361.237 233.888H361.258Z" fill="white" fill-opacity="0.3"/>
<path d="M426.535 205.018C426.535 205.018 426.187 205.018 426.187 205.365L422.262 209.288C421.915 209.635 421.915 210.003 422.262 210.003L441.888 229.618L461.514 210.003V209.288L457.589 205.365C457.241 205.018 456.873 205.018 456.526 205.365L441.541 220.342L426.555 205.018H426.535ZM419.768 212.148C419.768 212.148 419.42 212.148 419.42 212.496L415.495 216.419C415.148 216.766 415.148 217.134 415.495 217.481L430.48 232.458L404.803 258.121C404.456 258.468 404.456 258.836 404.803 259.184L408.728 263.107C409.076 263.454 409.444 263.454 409.444 263.107L439.762 232.805L435.121 228.167L420.136 213.19C420.136 212.128 419.788 212.128 419.788 212.128L419.768 212.148ZM463.988 212.148C463.988 212.148 463.64 212.148 463.64 212.496L448.655 227.473L444.014 232.111L474.332 262.412H475.048L478.973 258.489C479.321 258.142 479.321 257.774 478.973 257.426L453.296 231.763L468.281 216.787C468.629 216.439 468.629 216.071 468.281 215.724L464.356 211.801C464.356 212.148 464.008 212.148 464.008 212.148H463.988ZM441.868 233.888L437.227 238.527L411.55 264.189C411.202 264.537 411.202 264.905 411.55 265.252L415.475 269.175C415.822 269.522 416.19 269.522 416.538 269.175L442.215 243.512L467.893 269.175C468.24 269.522 468.608 269.522 468.956 269.175L472.881 265.252C473.228 264.905 473.228 264.537 472.881 264.189L447.203 238.527L441.847 233.888H441.868Z" fill="white" fill-opacity="0.3"/>
<path d="M507.124 205.018C507.124 205.018 506.777 205.018 506.777 205.365L502.851 209.288C502.504 209.635 502.504 210.003 502.851 210.003L522.477 229.618L542.103 210.003V209.288L538.178 205.365C537.831 205.018 537.463 205.018 537.115 205.365L522.13 220.342L507.145 205.018C507.492 205.018 507.492 205.365 507.145 205.018H507.124ZM500.357 212.148C500.357 212.148 500.01 212.148 500.01 212.496L496.085 216.419C495.737 216.766 495.737 217.134 496.085 217.481L511.07 232.458L485.392 258.121C485.045 258.468 485.045 258.836 485.392 259.184L489.318 263.107C489.665 263.454 490.033 263.454 490.033 263.107L520.351 232.805L515.711 228.167L500.725 213.19C500.725 212.128 500.378 212.128 500.378 212.128L500.357 212.148ZM544.577 212.148C544.577 212.148 544.23 212.148 544.23 212.496L529.244 227.473L524.604 232.111L554.922 262.412H555.637L559.562 258.489C559.91 258.142 559.91 257.774 559.562 257.426L533.885 231.763L548.87 216.787C549.218 216.439 549.218 216.071 548.87 215.724L544.945 211.801C544.945 212.033 544.829 212.148 544.598 212.148H544.577ZM522.457 233.888L517.816 238.527L492.139 264.189C491.791 264.537 491.791 264.905 492.139 265.252L496.064 269.175C496.412 269.522 496.78 269.522 497.127 269.175L522.805 243.512L548.482 269.175C548.829 269.522 549.197 269.522 549.545 269.175L553.47 265.252C553.818 264.905 553.818 264.537 553.47 264.189L527.793 238.527L522.437 233.888H522.457Z" fill="white" fill-opacity="0.3"/>
<path d="M587.734 205.018C587.734 205.018 587.387 205.018 587.387 205.365L583.461 209.288C583.114 209.635 583.114 210.003 583.461 210.003L603.087 229.618L622.713 210.003V209.288L618.788 205.365C618.441 205.018 618.073 205.018 617.725 205.365L602.74 220.342L587.754 205.018C588.102 205.018 588.102 205.365 587.754 205.018H587.734ZM580.967 212.148C580.967 212.148 580.62 212.148 580.62 212.496L576.694 216.419C576.347 216.766 576.347 217.134 576.694 217.481L591.68 232.458L566.002 258.121C565.655 258.468 565.655 258.836 566.002 259.184L569.928 263.107C570.275 263.454 570.643 263.454 570.643 263.107L600.961 232.805L596.32 228.167L581.335 213.19C581.335 212.482 581.219 212.128 580.988 212.128L580.967 212.148ZM625.187 212.148C625.187 212.148 624.839 212.148 624.839 212.496L609.854 227.473L605.213 232.111L635.532 262.412H636.247L640.172 258.489C640.52 258.142 640.52 257.774 640.172 257.426L614.495 231.763L629.48 216.787C629.828 216.439 629.828 216.071 629.48 215.724L625.555 211.801C625.555 212.033 625.439 212.148 625.207 212.148H625.187ZM603.067 233.888L598.426 238.527L572.749 264.189C572.401 264.537 572.401 264.905 572.749 265.252L576.674 269.175C577.022 269.522 577.39 269.522 577.737 269.175L603.414 243.512L629.092 269.175C629.439 269.522 629.807 269.522 630.155 269.175L634.08 265.252C634.428 264.905 634.428 264.537 634.08 264.189L608.403 238.527L603.046 233.888H603.067Z" fill="white" fill-opacity="0.3"/>
<path d="M668.692 205.018C668.692 205.018 668.344 205.018 668.344 205.365L664.419 209.288C664.071 209.635 664.071 210.003 664.419 210.003L684.045 229.618L703.671 210.003V209.288L699.746 205.365C699.398 205.018 699.03 205.018 698.683 205.365L683.697 220.342L668.712 205.018H668.692ZM661.925 212.148C661.925 212.148 661.577 212.148 661.577 212.496L657.652 216.419C657.304 216.766 657.304 217.134 657.652 217.481L672.637 232.458L646.96 258.121C646.612 258.468 646.612 258.836 646.96 259.184L650.885 263.107C651.233 263.454 651.601 263.454 651.601 263.107L681.919 232.805L677.278 228.167L662.293 213.19L661.945 212.128L661.925 212.148ZM706.145 212.148C706.145 212.148 705.797 212.148 705.797 212.496L690.812 227.473L686.171 232.111L716.489 262.412H717.205L721.13 258.489C721.477 258.142 721.477 257.774 721.13 257.426L695.452 231.763L710.438 216.787C710.785 216.439 710.785 216.071 710.438 215.724L706.513 211.801C706.513 212.148 706.165 212.148 706.165 212.148H706.145ZM684.024 233.888L679.384 238.527L653.706 264.189C653.359 264.537 653.359 264.905 653.706 265.252L657.632 269.175C657.979 269.522 658.347 269.522 658.695 269.175L684.372 243.512L710.049 269.175C710.397 269.522 710.765 269.522 711.112 269.175L715.038 265.252C715.385 264.905 715.385 264.537 715.038 264.189L689.36 238.527L684.004 233.888H684.024Z" fill="white" fill-opacity="0.3"/>
<path d="M749.301 205.018C749.301 205.018 748.953 205.018 748.953 205.365L745.028 209.288C744.681 209.635 744.681 210.003 745.028 210.003L764.654 229.618L784.28 210.003V209.288L780.355 205.365C780.007 205.018 779.639 205.018 779.292 205.365L764.307 220.342L749.321 205.018C749.669 205.018 749.669 205.365 749.321 205.018H749.301ZM742.534 212.148C742.534 212.148 742.187 212.148 742.187 212.496L738.261 216.419C737.914 216.766 737.914 217.134 738.261 217.481L753.247 232.458L727.569 258.121C727.222 258.468 727.222 258.836 727.569 259.184L731.494 263.107C731.842 263.454 732.21 263.454 732.21 263.107L762.528 232.805L757.887 228.167L742.902 213.19C742.902 212.128 742.554 212.128 742.554 212.128L742.534 212.148ZM786.754 212.148C786.754 212.148 786.406 212.148 786.406 212.496L771.421 227.473L766.78 232.111L797.098 262.412H797.814L801.739 258.489C802.087 258.142 802.087 257.774 801.739 257.426L776.062 231.763L791.047 216.787C791.395 216.439 791.395 216.071 791.047 215.724L787.122 211.801C787.122 212.148 786.774 212.148 786.774 212.148H786.754ZM764.634 233.888L759.993 238.527L734.316 264.189C733.968 264.537 733.968 264.905 734.316 265.252L738.241 269.175C738.588 269.522 738.956 269.522 739.304 269.175L764.981 243.512L790.659 269.175C791.006 269.522 791.374 269.522 791.722 269.175L795.647 265.252C795.994 264.905 795.994 264.537 795.647 264.189L769.97 238.527L764.613 233.888H764.634Z" fill="white" fill-opacity="0.3"/>
<path d="M23.1591 273.384L18.8864 277.654C18.5388 278.001 18.5388 278.369 18.8864 278.369L38.5124 297.984L58.1384 278.369V277.654L54.2132 273.731C53.8657 273.384 53.4977 273.384 53.1501 273.731L38.1648 288.708L23.1796 273.384H23.1591ZM16.0243 280.515L11.7515 284.785C11.404 285.132 11.404 285.5 11.7515 285.847L26.7368 300.824L1.03898 326.508C0.691434 326.855 0.691434 327.223 1.03898 327.57L4.96418 331.493C5.31172 331.841 5.67971 331.841 5.67971 331.493L35.9978 301.192L31.3571 296.554L16.3718 281.577C16.3718 280.869 16.2559 280.515 16.0243 280.515ZM60.6121 280.515C60.6121 280.515 60.2645 280.515 60.2645 280.862L45.2793 295.839L40.6385 300.477L70.9566 330.778H71.6722L75.5974 326.855C75.9449 326.508 75.9449 326.14 75.5974 325.793L49.92 300.13L64.9053 285.153C65.2528 284.805 65.2528 284.438 64.9053 284.09L60.9801 280.167C60.6325 280.515 60.6325 280.167 60.6325 280.515H60.6121ZM38.1444 302.255L33.5037 306.893L7.82631 332.556C7.47876 332.903 7.47876 333.271 7.82631 333.618L11.7515 337.541C12.0991 337.888 12.467 337.888 12.8146 337.541L38.4919 311.878L64.1693 337.541C64.5168 337.888 64.8848 337.888 65.2324 337.541L69.1576 333.618C69.5051 333.271 69.5051 332.903 69.1576 332.556L43.4802 306.893L38.124 302.255H38.1444Z" fill="white" fill-opacity="0.3"/>
<path d="M103.749 273.384C103.749 273.384 103.401 273.384 103.401 273.731L99.476 277.654C99.1284 278.001 99.1284 278.369 99.476 278.369L119.102 297.984L138.728 278.369V277.654L134.803 273.731C134.455 273.384 134.087 273.384 133.74 273.731L118.754 288.708L103.769 273.384H103.749ZM96.9818 280.515C96.9818 280.515 96.6343 280.515 96.6343 280.862L92.7091 284.785C92.3615 285.132 92.3615 285.5 92.7091 285.847L107.694 300.824L82.017 326.487C81.6695 326.835 81.6695 327.202 82.017 327.55L85.9422 331.473C86.2897 331.82 86.6577 331.82 86.6577 331.473L116.976 301.172L112.335 296.534L97.3498 281.557C97.3498 280.494 97.0023 280.494 97.0023 280.494L96.9818 280.515ZM141.202 280.515C141.202 280.515 140.854 280.515 140.854 280.862L125.869 295.839L121.228 300.477L151.546 330.778H152.262L156.187 326.855C156.534 326.508 156.534 326.14 156.187 325.793L130.51 300.13L145.495 285.153C145.842 284.805 145.842 284.438 145.495 284.09L141.57 280.167C141.57 280.515 141.222 280.167 141.222 280.515H141.202ZM119.082 302.255L114.441 306.893L88.7634 332.556C88.4159 332.903 88.4159 333.271 88.7634 333.618L92.6886 337.541C93.0362 337.888 93.4042 337.888 93.7517 337.541L119.429 311.878L145.106 337.541C145.454 337.888 145.822 337.888 146.17 337.541L150.095 333.618C150.442 333.271 150.442 332.903 150.095 332.556L124.417 306.893L119.061 302.255H119.082Z" fill="white" fill-opacity="0.3"/>
<path d="M184.358 273.384C184.358 273.384 184.01 273.384 184.01 273.731L180.085 277.654C179.737 278.001 179.737 278.369 180.085 278.369L199.711 297.984L219.337 278.369V277.654L215.412 273.731C215.064 273.384 214.696 273.384 214.349 273.731L199.363 288.708L184.378 273.384C184.726 273.384 184.726 273.731 184.378 273.384H184.358ZM177.591 280.515C177.591 280.515 177.243 280.515 177.243 280.862L173.318 284.785C172.97 285.132 172.97 285.5 173.318 285.847L188.303 300.824L162.626 326.487C162.278 326.835 162.278 327.202 162.626 327.55L166.551 331.473C166.899 331.82 167.267 331.82 167.267 331.473L197.585 301.172L192.944 296.534L177.959 281.557C177.959 280.494 177.611 280.494 177.611 280.494L177.591 280.515ZM221.811 280.515C221.811 280.515 221.463 280.515 221.463 280.862L206.478 295.839L201.837 300.477L232.155 330.778H232.871L236.796 326.855C237.143 326.508 237.143 326.14 236.796 325.793L211.118 300.13L226.104 285.153C226.451 284.805 226.451 284.438 226.104 284.09L222.179 280.167C222.179 280.515 222.179 280.167 221.831 280.515H221.811ZM199.69 302.255L195.05 306.893L169.372 332.556C169.025 332.903 169.025 333.271 169.372 333.618L173.298 337.541C173.645 337.888 174.013 337.888 174.361 337.541L200.038 311.878L225.715 337.541C226.063 337.888 226.431 337.888 226.778 337.541L230.704 333.618C231.051 333.271 231.051 332.903 230.704 332.556L205.026 306.893L199.67 302.255H199.69Z" fill="white" fill-opacity="0.3"/>
<path d="M264.967 273.384C264.967 273.384 264.62 273.384 264.62 273.731L260.695 277.654C260.347 278.001 260.347 278.369 260.695 278.369L280.321 297.984L299.947 278.369V277.654L296.022 273.731C295.674 273.384 295.306 273.384 294.958 273.731L279.973 288.708L264.988 273.384C265.335 273.384 265.335 273.731 264.988 273.384H264.967ZM258.201 280.515C258.201 280.515 257.853 280.515 257.853 280.862L253.928 284.785C253.58 285.132 253.58 285.5 253.928 285.847L268.913 300.824L243.236 326.487C242.888 326.835 242.888 327.202 243.236 327.55L247.161 331.473C247.508 331.82 247.876 331.82 247.876 331.473L278.195 301.172L273.554 296.534L258.569 281.557C258.569 280.848 258.453 280.494 258.221 280.494L258.201 280.515ZM302.42 280.515C302.42 280.515 302.073 280.515 302.073 280.862L287.088 295.839L282.447 300.477L312.765 330.778H313.481L317.406 326.855C317.753 326.508 317.753 326.14 317.406 325.793L291.728 300.13L306.714 285.153C307.061 284.805 307.061 284.438 306.714 284.09L302.788 280.167C302.788 280.515 302.788 280.167 302.441 280.515H302.42ZM280.3 302.255L275.66 306.893L249.982 332.556C249.635 332.903 249.635 333.271 249.982 333.618L253.907 337.541C254.255 337.888 254.623 337.888 254.97 337.541L280.648 311.878L306.325 337.541C306.673 337.888 307.041 337.888 307.388 337.541L311.313 333.618C311.661 333.271 311.661 332.903 311.313 332.556L285.636 306.893L280.28 302.255H280.3Z" fill="white" fill-opacity="0.3"/>
<path d="M345.925 273.384C345.925 273.384 345.577 273.384 345.577 273.731L341.652 277.654C341.305 278.001 341.305 278.369 341.652 278.369L361.278 297.984L380.904 278.369V277.654L376.979 273.731C376.632 273.384 376.264 273.384 375.916 273.731L360.931 288.708L345.945 273.384H345.925ZM339.158 280.515C339.158 280.515 338.811 280.515 338.811 280.862L334.885 284.785C334.538 285.132 334.538 285.5 334.885 285.847L349.871 300.824L324.193 326.487C323.846 326.835 323.846 327.202 324.193 327.55L328.118 331.473C328.466 331.82 328.834 331.82 328.834 331.473L359.152 301.172L354.511 296.534L339.526 281.557L339.179 280.494L339.158 280.515ZM383.378 280.515C383.378 280.515 383.03 280.515 383.03 280.862L368.045 295.839L363.404 300.477L393.723 330.778H394.438L398.363 326.855C398.711 326.508 398.711 326.14 398.363 325.793L372.686 300.13L387.671 285.153C388.019 284.805 388.019 284.438 387.671 284.09L383.746 280.167C383.746 280.515 383.398 280.167 383.398 280.515H383.378ZM361.258 302.255L356.617 306.893L330.94 332.556C330.592 332.903 330.592 333.271 330.94 333.618L334.865 337.541C335.212 337.888 335.58 337.888 335.928 337.541L361.605 311.878L387.283 337.541C387.63 337.888 387.998 337.888 388.346 337.541L392.271 333.618C392.619 333.271 392.619 332.903 392.271 332.556L366.594 306.893L361.237 302.255H361.258Z" fill="white" fill-opacity="0.3"/>
<path d="M426.535 273.384C426.535 273.384 426.187 273.384 426.187 273.731L422.262 277.654C421.915 278.001 421.915 278.369 422.262 278.369L441.888 297.984L461.514 278.369V277.654L457.589 273.731C457.241 273.384 456.873 273.384 456.526 273.731L441.541 288.708L426.555 273.384H426.535ZM419.768 280.515C419.768 280.515 419.42 280.515 419.42 280.862L415.495 284.785C415.148 285.132 415.148 285.5 415.495 285.847L430.48 300.824L404.803 326.487C404.456 326.835 404.456 327.202 404.803 327.55L408.728 331.473C409.076 331.82 409.444 331.82 409.444 331.473L439.762 301.172L435.121 296.534L420.136 281.557C420.136 280.494 419.788 280.494 419.788 280.494L419.768 280.515ZM463.988 280.515C463.988 280.515 463.64 280.515 463.64 280.862L448.655 295.839L444.014 300.477L474.332 330.778H475.048L478.973 326.855C479.321 326.508 479.321 326.14 478.973 325.793L453.296 300.13L468.281 285.153C468.629 284.805 468.629 284.438 468.281 284.09L464.356 280.167C464.356 280.515 464.008 280.167 464.008 280.515H463.988ZM441.868 302.255L437.227 306.893L411.55 332.556C411.202 332.903 411.202 333.271 411.55 333.618L415.475 337.541C415.822 337.888 416.19 337.888 416.538 337.541L442.215 311.878L467.893 337.541C468.24 337.888 468.608 337.888 468.956 337.541L472.881 333.618C473.228 333.271 473.228 332.903 472.881 332.556L447.203 306.893L441.847 302.255H441.868Z" fill="white" fill-opacity="0.3"/>
<path d="M507.124 273.384C507.124 273.384 506.777 273.384 506.777 273.731L502.851 277.654C502.504 278.001 502.504 278.369 502.851 278.369L522.477 297.984L542.103 278.369V277.654L538.178 273.731C537.831 273.384 537.463 273.384 537.115 273.731L522.13 288.708L507.145 273.384C507.492 273.384 507.492 273.731 507.145 273.384H507.124ZM500.357 280.515C500.357 280.515 500.01 280.515 500.01 280.862L496.085 284.785C495.737 285.132 495.737 285.5 496.085 285.847L511.07 300.824L485.392 326.487C485.045 326.835 485.045 327.202 485.392 327.55L489.318 331.473C489.665 331.82 490.033 331.82 490.033 331.473L520.351 301.172L515.711 296.534L500.725 281.557C500.725 280.494 500.378 280.494 500.378 280.494L500.357 280.515ZM544.577 280.515C544.577 280.515 544.23 280.515 544.23 280.862L529.244 295.839L524.604 300.477L554.922 330.778H555.637L559.562 326.855C559.91 326.508 559.91 326.14 559.562 325.793L533.885 300.13L548.87 285.153C549.218 284.805 549.218 284.438 548.87 284.09L544.945 280.167C544.945 280.515 544.945 280.167 544.598 280.515H544.577ZM522.457 302.255L517.816 306.893L492.139 332.556C491.791 332.903 491.791 333.271 492.139 333.618L496.064 337.541C496.412 337.888 496.78 337.888 497.127 337.541L522.805 311.878L548.482 337.541C548.829 337.888 549.197 337.888 549.545 337.541L553.47 333.618C553.818 333.271 553.818 332.903 553.47 332.556L527.793 306.893L522.437 302.255H522.457Z" fill="white" fill-opacity="0.3"/>
<path d="M587.734 273.384C587.734 273.384 587.387 273.384 587.387 273.731L583.461 277.654C583.114 278.001 583.114 278.369 583.461 278.369L603.087 297.984L622.713 278.369V277.654L618.788 273.731C618.441 273.384 618.073 273.384 617.725 273.731L602.74 288.708L587.754 273.384C588.102 273.384 588.102 273.731 587.754 273.384H587.734ZM580.967 280.515C580.967 280.515 580.62 280.515 580.62 280.862L576.694 284.785C576.347 285.132 576.347 285.5 576.694 285.847L591.68 300.824L566.002 326.487C565.655 326.835 565.655 327.202 566.002 327.55L569.928 331.473C570.275 331.82 570.643 331.82 570.643 331.473L600.961 301.172L596.32 296.534L581.335 281.557C581.335 280.848 581.219 280.494 580.988 280.494L580.967 280.515ZM625.187 280.515C625.187 280.515 624.839 280.515 624.839 280.862L609.854 295.839L605.213 300.477L635.532 330.778H636.247L640.172 326.855C640.52 326.508 640.52 326.14 640.172 325.793L614.495 300.13L629.48 285.153C629.828 284.805 629.828 284.438 629.48 284.09L625.555 280.167C625.555 280.515 625.555 280.167 625.207 280.515H625.187ZM603.067 302.255L598.426 306.893L572.749 332.556C572.401 332.903 572.401 333.271 572.749 333.618L576.674 337.541C577.022 337.888 577.39 337.888 577.737 337.541L603.414 311.878L629.092 337.541C629.439 337.888 629.807 337.888 630.155 337.541L634.08 333.618C634.428 333.271 634.428 332.903 634.08 332.556L608.403 306.893L603.046 302.255H603.067Z" fill="white" fill-opacity="0.3"/>
<path d="M668.692 273.384C668.692 273.384 668.344 273.384 668.344 273.731L664.419 277.654C664.071 278.001 664.071 278.369 664.419 278.369L684.045 297.984L703.671 278.369V277.654L699.746 273.731C699.398 273.384 699.03 273.384 698.683 273.731L683.697 288.708L668.712 273.384H668.692ZM661.925 280.515C661.925 280.515 661.577 280.515 661.577 280.862L657.652 284.785C657.304 285.132 657.304 285.5 657.652 285.847L672.637 300.824L646.96 326.487C646.612 326.835 646.612 327.202 646.96 327.55L650.885 331.473C651.233 331.82 651.601 331.82 651.601 331.473L681.919 301.172L677.278 296.534L662.293 281.557L661.945 280.494L661.925 280.515ZM706.145 280.515C706.145 280.515 705.797 280.515 705.797 280.862L690.812 295.839L686.171 300.477L716.489 330.778H717.205L721.13 326.855C721.477 326.508 721.477 326.14 721.13 325.793L695.452 300.13L710.438 285.153C710.785 284.805 710.785 284.438 710.438 284.09L706.513 280.167C706.513 280.515 706.165 280.167 706.165 280.515H706.145ZM684.024 302.255L679.384 306.893L653.706 332.556C653.359 332.903 653.359 333.271 653.706 333.618L657.632 337.541C657.979 337.888 658.347 337.888 658.695 337.541L684.372 311.878L710.049 337.541C710.397 337.888 710.765 337.888 711.112 337.541L715.038 333.618C715.385 333.271 715.385 332.903 715.038 332.556L689.36 306.893L684.004 302.255H684.024Z" fill="white" fill-opacity="0.3"/>
<path d="M749.301 273.384C749.301 273.384 748.953 273.384 748.953 273.731L745.028 277.654C744.681 278.001 744.681 278.369 745.028 278.369L764.654 297.984L784.28 278.369V277.654L780.355 273.731C780.007 273.384 779.639 273.384 779.292 273.731L764.307 288.708L749.321 273.384C749.669 273.384 749.669 273.731 749.321 273.384H749.301ZM742.534 280.515C742.534 280.515 742.187 280.515 742.187 280.862L738.261 284.785C737.914 285.132 737.914 285.5 738.261 285.847L753.247 300.824L727.569 326.487C727.222 326.835 727.222 327.202 727.569 327.55L731.494 331.473C731.842 331.82 732.21 331.82 732.21 331.473L762.528 301.172L757.887 296.534L742.902 281.557C742.902 280.494 742.554 280.494 742.554 280.494L742.534 280.515ZM786.754 280.515C786.754 280.515 786.406 280.515 786.406 280.862L771.421 295.839L766.78 300.477L797.098 330.778H797.814L801.739 326.855C802.087 326.508 802.087 326.14 801.739 325.793L776.062 300.13L791.047 285.153C791.395 284.805 791.395 284.438 791.047 284.09L787.122 280.167C787.122 280.515 786.774 280.167 786.774 280.515H786.754ZM764.634 302.255L759.993 306.893L734.316 332.556C733.968 332.903 733.968 333.271 734.316 333.618L738.241 337.541C738.588 337.888 738.956 337.888 739.304 337.541L764.981 311.878L790.659 337.541C791.006 337.888 791.374 337.888 791.722 337.541L795.647 333.618C795.994 333.271 795.994 332.903 795.647 332.556L769.97 306.893L764.613 302.255H764.634Z" fill="white" fill-opacity="0.3"/>
<path d="M23.1591 341.995L18.8864 346.265C18.5388 346.613 18.5388 346.981 18.8864 346.981L38.5124 366.596L58.1384 346.981V346.265L54.2132 342.342C53.8657 341.995 53.4977 341.995 53.1501 342.342L38.1648 357.319L23.1796 341.995H23.1591ZM16.0243 348.758L11.7515 353.029C11.404 353.376 11.404 353.744 11.7515 354.091L26.7368 369.068L1.03898 394.751C0.691434 395.099 0.691434 395.466 1.03898 395.814L4.96418 399.737C5.31172 400.084 5.67971 400.084 5.67971 399.737L35.9978 369.436L31.3571 364.798L16.3718 349.821C16.3718 349.112 16.2559 348.758 16.0243 348.758ZM60.6121 348.758C60.6121 348.758 60.2645 348.758 60.2645 349.106L45.2793 364.082L40.6385 368.721L70.9566 399.022H71.6722L75.5974 395.099C75.9449 394.751 75.9449 394.383 75.5974 394.036L49.92 368.373L64.9053 353.396C65.2528 353.049 65.2528 352.681 64.9053 352.334L60.9801 348.411L60.6325 348.758H60.6121ZM38.1444 370.498L33.5037 375.136L7.82631 400.799C7.47876 401.147 7.47876 401.514 7.82631 401.862L11.7515 405.785C12.0991 406.132 12.467 406.132 12.8146 405.785L38.4919 380.122L64.1693 405.785C64.5168 406.132 64.8848 406.132 65.2324 405.785L69.1576 401.862C69.5051 401.514 69.5051 401.147 69.1576 400.799L43.4802 375.136L38.124 370.498H38.1444Z" fill="white" fill-opacity="0.3"/>
<path d="M103.749 341.995C103.749 341.995 103.401 341.995 103.401 342.342L99.476 346.265C99.1284 346.613 99.1284 346.981 99.476 346.981L119.102 366.596L138.728 346.981V346.265L134.803 342.342C134.455 341.995 134.087 341.995 133.74 342.342L118.754 357.319L103.769 341.995H103.749ZM96.9818 348.758C96.9818 348.758 96.6343 348.758 96.6343 349.106L92.7091 353.029C92.3615 353.376 92.3615 353.744 92.7091 354.091L107.694 369.068L82.017 394.731C81.6695 395.078 81.6695 395.446 82.017 395.793L85.9422 399.716C86.2897 400.064 86.6577 400.064 86.6577 399.716L116.976 369.415L112.335 364.777L97.3498 349.8C97.3498 348.738 97.0023 348.738 97.0023 348.738L96.9818 348.758ZM141.202 348.758C141.202 348.758 140.854 348.758 140.854 349.106L125.869 364.082L121.228 368.721L151.546 399.022H152.262L156.187 395.099C156.534 394.751 156.534 394.383 156.187 394.036L130.51 368.373L145.495 353.396C145.842 353.049 145.842 352.681 145.495 352.334L141.57 348.411C141.57 348.758 141.222 348.758 141.222 348.758H141.202ZM119.082 370.498L114.441 375.136L88.7634 400.799C88.4159 401.147 88.4159 401.514 88.7634 401.862L92.6886 405.785C93.0362 406.132 93.4042 406.132 93.7517 405.785L119.429 380.122L145.106 405.785C145.454 406.132 145.822 406.132 146.17 405.785L150.095 401.862C150.442 401.514 150.442 401.147 150.095 400.799L124.417 375.136L119.061 370.498H119.082Z" fill="white" fill-opacity="0.3"/>
<path d="M184.358 341.995C184.358 341.995 184.01 341.995 184.01 342.342L180.085 346.265C179.737 346.613 179.737 346.981 180.085 346.981L199.711 366.596L219.337 346.981V346.265L215.412 342.342C215.064 341.995 214.696 341.995 214.349 342.342L199.363 357.319L184.378 341.995C184.61 341.995 184.61 341.995 184.378 341.995H184.358ZM177.591 348.758C177.591 348.758 177.243 348.758 177.243 349.106L173.318 353.029C172.97 353.376 172.97 353.744 173.318 354.091L188.303 369.068L162.626 394.731C162.278 395.078 162.278 395.446 162.626 395.793L166.551 399.716C166.899 400.064 167.267 400.064 167.267 399.716L197.585 369.415L192.944 364.777L177.959 349.8C177.959 348.738 177.611 348.738 177.611 348.738L177.591 348.758ZM221.811 348.758C221.811 348.758 221.463 348.758 221.463 349.106L206.478 364.082L201.837 368.721L232.155 399.022H232.871L236.796 395.099C237.143 394.751 237.143 394.383 236.796 394.036L211.118 368.373L226.104 353.396C226.451 353.049 226.451 352.681 226.104 352.334L222.179 348.411C222.179 348.642 222.063 348.758 221.831 348.758H221.811ZM199.69 370.498L195.05 375.136L169.372 400.799C169.025 401.147 169.025 401.514 169.372 401.862L173.298 405.785C173.645 406.132 174.013 406.132 174.361 405.785L200.038 380.122L225.715 405.785C226.063 406.132 226.431 406.132 226.778 405.785L230.704 401.862C231.051 401.514 231.051 401.147 230.704 400.799L205.026 375.136L199.67 370.498H199.69Z" fill="white" fill-opacity="0.3"/>
<path d="M264.967 341.995C264.967 341.995 264.62 341.995 264.62 342.342L260.695 346.265C260.347 346.613 260.347 346.981 260.695 346.981L280.321 366.596L299.947 346.981V346.265L296.022 342.342C295.674 341.995 295.306 341.995 294.958 342.342L279.973 357.319L264.988 341.995C265.22 341.995 265.22 341.995 264.988 341.995H264.967ZM258.201 348.758C258.201 348.758 257.853 348.758 257.853 349.106L253.928 353.029C253.58 353.376 253.58 353.744 253.928 354.091L268.913 369.068L243.236 394.731C242.888 395.078 242.888 395.446 243.236 395.793L247.161 399.716C247.508 400.064 247.876 400.064 247.876 399.716L278.195 369.415L273.554 364.777L258.569 349.8C258.569 349.092 258.453 348.738 258.221 348.738L258.201 348.758ZM302.42 348.758C302.42 348.758 302.073 348.758 302.073 349.106L287.088 364.082L282.447 368.721L312.765 399.022H313.481L317.406 395.099C317.753 394.751 317.753 394.383 317.406 394.036L291.728 368.373L306.714 353.396C307.061 353.049 307.061 352.681 306.714 352.334L302.788 348.411C302.788 348.642 302.673 348.758 302.441 348.758H302.42ZM280.3 370.498L275.66 375.136L249.982 400.799C249.635 401.147 249.635 401.514 249.982 401.862L253.907 405.785C254.255 406.132 254.623 406.132 254.97 405.785L280.648 380.122L306.325 405.785C306.673 406.132 307.041 406.132 307.388 405.785L311.313 401.862C311.661 401.514 311.661 401.147 311.313 400.799L285.636 375.136L280.28 370.498H280.3Z" fill="white" fill-opacity="0.3"/>
<path d="M345.925 341.995C345.925 341.995 345.577 341.995 345.577 342.342L341.652 346.265C341.305 346.613 341.305 346.981 341.652 346.981L361.278 366.596L380.904 346.981V346.265L376.979 342.342C376.632 341.995 376.264 341.995 375.916 342.342L360.931 357.319L345.945 341.995H345.925ZM339.158 348.758C339.158 348.758 338.811 348.758 338.811 349.106L334.885 353.029C334.538 353.376 334.538 353.744 334.885 354.091L349.871 369.068L324.193 394.731C323.846 395.078 323.846 395.446 324.193 395.793L328.118 399.716C328.466 400.064 328.834 400.064 328.834 399.716L359.152 369.415L354.511 364.777L339.526 349.8L339.179 348.738L339.158 348.758ZM383.378 348.758C383.378 348.758 383.03 348.758 383.03 349.106L368.045 364.082L363.404 368.721L393.723 399.022H394.438L398.363 395.099C398.711 394.751 398.711 394.383 398.363 394.036L372.686 368.373L387.671 353.396C388.019 353.049 388.019 352.681 387.671 352.334L383.746 348.411C383.746 348.758 383.398 348.758 383.398 348.758H383.378ZM361.258 370.498L356.617 375.136L330.94 400.799C330.592 401.147 330.592 401.514 330.94 401.862L334.865 405.785C335.212 406.132 335.58 406.132 335.928 405.785L361.605 380.122L387.283 405.785C387.63 406.132 387.998 406.132 388.346 405.785L392.271 401.862C392.619 401.514 392.619 401.147 392.271 400.799L366.594 375.136L361.237 370.498H361.258Z" fill="white" fill-opacity="0.3"/>
<path d="M426.535 341.995C426.535 341.995 426.187 341.995 426.187 342.342L422.262 346.265C421.915 346.613 421.915 346.981 422.262 346.981L441.888 366.596L461.514 346.981V346.265L457.589 342.342C457.241 341.995 456.873 341.995 456.526 342.342L441.541 357.319L426.555 341.995H426.535ZM419.768 348.758C419.768 348.758 419.42 348.758 419.42 349.106L415.495 353.029C415.148 353.376 415.148 353.744 415.495 354.091L430.48 369.068L404.803 394.731C404.456 395.078 404.456 395.446 404.803 395.793L408.728 399.716C409.076 400.064 409.444 400.064 409.444 399.716L439.762 369.415L435.121 364.777L420.136 349.8C420.136 348.738 419.788 348.738 419.788 348.738L419.768 348.758ZM463.988 348.758C463.988 348.758 463.64 348.758 463.64 349.106L448.655 364.082L444.014 368.721L474.332 399.022H475.048L478.973 395.099C479.321 394.751 479.321 394.383 478.973 394.036L453.296 368.373L468.281 353.396C468.629 353.049 468.629 352.681 468.281 352.334L464.356 348.411C464.356 348.758 464.008 348.758 464.008 348.758H463.988ZM441.868 370.498L437.227 375.136L411.55 400.799C411.202 401.147 411.202 401.514 411.55 401.862L415.475 405.785C415.822 406.132 416.19 406.132 416.538 405.785L442.215 380.122L467.893 405.785C468.24 406.132 468.608 406.132 468.956 405.785L472.881 401.862C473.228 401.514 473.228 401.147 472.881 400.799L447.203 375.136L441.847 370.498H441.868Z" fill="white" fill-opacity="0.3"/>
<path d="M507.124 341.995C507.124 341.995 506.777 341.995 506.777 342.342L502.851 346.265C502.504 346.613 502.504 346.981 502.851 346.981L522.477 366.596L542.103 346.981V346.265L538.178 342.342C537.831 341.995 537.463 341.995 537.115 342.342L522.13 357.319L507.145 341.995C507.376 341.995 507.376 341.995 507.145 341.995H507.124ZM500.357 348.758C500.357 348.758 500.01 348.758 500.01 349.106L496.085 353.029C495.737 353.376 495.737 353.744 496.085 354.091L511.07 369.068L485.392 394.731C485.045 395.078 485.045 395.446 485.392 395.793L489.318 399.716C489.665 400.064 490.033 400.064 490.033 399.716L520.351 369.415L515.711 364.777L500.725 349.8C500.725 348.738 500.378 348.738 500.378 348.738L500.357 348.758ZM544.577 348.758C544.577 348.758 544.23 348.758 544.23 349.106L529.244 364.082L524.604 368.721L554.922 399.022H555.637L559.562 395.099C559.91 394.751 559.91 394.383 559.562 394.036L533.885 368.373L548.87 353.396C549.218 353.049 549.218 352.681 548.87 352.334L544.945 348.411C544.945 348.642 544.829 348.758 544.598 348.758H544.577ZM522.457 370.498L517.816 375.136L492.139 400.799C491.791 401.147 491.791 401.514 492.139 401.862L496.064 405.785C496.412 406.132 496.78 406.132 497.127 405.785L522.805 380.122L548.482 405.785C548.829 406.132 549.197 406.132 549.545 405.785L553.47 401.862C553.818 401.514 553.818 401.147 553.47 400.799L527.793 375.136L522.437 370.498H522.457Z" fill="white" fill-opacity="0.3"/>
<path d="M587.734 341.995C587.734 341.995 587.387 341.995 587.387 342.342L583.461 346.265C583.114 346.613 583.114 346.981 583.461 346.981L603.087 366.596L622.713 346.981V346.265L618.788 342.342C618.441 341.995 618.073 341.995 617.725 342.342L602.74 357.319L587.754 341.995C587.986 341.995 587.986 341.995 587.754 341.995H587.734ZM580.967 348.758C580.967 348.758 580.62 348.758 580.62 349.106L576.694 353.029C576.347 353.376 576.347 353.744 576.694 354.091L591.68 369.068L566.002 394.731C565.655 395.078 565.655 395.446 566.002 395.793L569.928 399.716C570.275 400.064 570.643 400.064 570.643 399.716L600.961 369.415L596.32 364.777L581.335 349.8C581.335 349.092 581.219 348.738 580.988 348.738L580.967 348.758ZM625.187 348.758C625.187 348.758 624.839 348.758 624.839 349.106L609.854 364.082L605.213 368.721L635.532 399.022H636.247L640.172 395.099C640.52 394.751 640.52 394.383 640.172 394.036L614.495 368.373L629.48 353.396C629.828 353.049 629.828 352.681 629.48 352.334L625.555 348.411C625.555 348.642 625.439 348.758 625.207 348.758H625.187ZM603.067 370.498L598.426 375.136L572.749 400.799C572.401 401.147 572.401 401.514 572.749 401.862L576.674 405.785C577.022 406.132 577.39 406.132 577.737 405.785L603.414 380.122L629.092 405.785C629.439 406.132 629.807 406.132 630.155 405.785L634.08 401.862C634.428 401.514 634.428 401.147 634.08 400.799L608.403 375.136L603.046 370.498H603.067Z" fill="white" fill-opacity="0.3"/>
<path d="M668.692 341.995C668.692 341.995 668.344 341.995 668.344 342.342L664.419 346.265C664.071 346.613 664.071 346.981 664.419 346.981L684.045 366.596L703.671 346.981V346.265L699.746 342.342C699.398 341.995 699.03 341.995 698.683 342.342L683.697 357.319L668.712 341.995H668.692ZM661.925 348.758C661.925 348.758 661.577 348.758 661.577 349.106L657.652 353.029C657.304 353.376 657.304 353.744 657.652 354.091L672.637 369.068L646.96 394.731C646.612 395.078 646.612 395.446 646.96 395.793L650.885 399.716C651.233 400.064 651.601 400.064 651.601 399.716L681.919 369.415L677.278 364.777L662.293 349.8L661.945 348.738L661.925 348.758ZM706.145 348.758C706.145 348.758 705.797 348.758 705.797 349.106L690.812 364.082L686.171 368.721L716.489 399.022H717.205L721.13 395.099C721.477 394.751 721.477 394.383 721.13 394.036L695.452 368.373L710.438 353.396C710.785 353.049 710.785 352.681 710.438 352.334L706.513 348.411C706.513 348.758 706.165 348.758 706.165 348.758H706.145ZM684.024 370.498L679.384 375.136L653.706 400.799C653.359 401.147 653.359 401.514 653.706 401.862L657.632 405.785C657.979 406.132 658.347 406.132 658.695 405.785L684.372 380.122L710.049 405.785C710.397 406.132 710.765 406.132 711.112 405.785L715.038 401.862C715.385 401.514 715.385 401.147 715.038 400.799L689.36 375.136L684.004 370.498H684.024Z" fill="white" fill-opacity="0.3"/>
<path d="M749.301 341.995C749.301 341.995 748.953 341.995 748.953 342.342L745.028 346.265C744.681 346.613 744.681 346.981 745.028 346.981L764.654 366.596L784.28 346.981V346.265L780.355 342.342C780.007 341.995 779.639 341.995 779.292 342.342L764.307 357.319L749.321 341.995C749.553 341.995 749.553 341.995 749.321 341.995H749.301ZM742.534 348.758C742.534 348.758 742.187 348.758 742.187 349.106L738.261 353.029C737.914 353.376 737.914 353.744 738.261 354.091L753.247 369.068L727.569 394.731C727.222 395.078 727.222 395.446 727.569 395.793L731.494 399.716C731.842 400.064 732.21 400.064 732.21 399.716L762.528 369.415L757.887 364.777L742.902 349.8C742.902 348.738 742.554 348.738 742.554 348.738L742.534 348.758ZM786.754 348.758C786.754 348.758 786.406 348.758 786.406 349.106L771.421 364.082L766.78 368.721L797.098 399.022H797.814L801.739 395.099C802.087 394.751 802.087 394.383 801.739 394.036L776.062 368.373L791.047 353.396C791.395 353.049 791.395 352.681 791.047 352.334L787.122 348.411C787.122 348.758 786.774 348.758 786.774 348.758H786.754ZM764.634 370.498L759.993 375.136L734.316 400.799C733.968 401.147 733.968 401.514 734.316 401.862L738.241 405.785C738.588 406.132 738.956 406.132 739.304 405.785L764.981 380.122L790.659 405.785C791.006 406.132 791.374 406.132 791.722 405.785L795.647 401.862C795.994 401.514 795.994 401.147 795.647 400.799L769.97 375.136L764.613 370.498H764.634Z" fill="white" fill-opacity="0.3"/>
</svg>
