<svg width="327" height="327" viewBox="0 0 327 327" fill="none" xmlns="http://www.w3.org/2000/svg">
<g clip-path="url(#clip0_1736_994)">
<path d="M317.634 0H9.36645C4.1935 0 0 4.1935 0 9.36645V317.634C0 322.807 4.1935 327 9.36645 327H317.634C322.807 327 327 322.807 327 317.634V9.36645C327 4.1935 322.807 0 317.634 0Z" fill="white"/>
<path d="M311.49 113.856V212.453H269.318V208.403C274.352 205.824 277.825 200.564 277.825 194.501C277.825 185.87 270.822 178.89 262.191 178.89C253.56 178.89 246.581 185.87 246.581 194.501C246.581 200.564 250.031 205.813 255.087 208.403V212.453H212.802V170.259H208.153C205.551 175.315 200.325 178.765 194.251 178.765C185.619 178.765 178.617 171.786 178.617 163.155C178.617 154.524 185.619 147.521 194.251 147.521C200.314 147.521 205.551 150.983 208.153 156.028H212.802V113.856H255.087V118.596C250.042 121.175 246.581 126.424 246.581 132.499C246.581 141.13 253.56 148.132 262.191 148.132C270.822 148.132 277.825 141.13 277.825 132.499C277.825 126.436 274.363 121.187 269.318 118.596V113.856H311.49Z" fill="#E6E6E6" stroke="white" stroke-miterlimit="10"/>
<path d="M247.002 64.5356C247.002 72.0695 241.674 78.3477 234.593 79.8296C234.31 79.8975 234.05 79.9314 233.756 79.988C233.224 80.0559 232.715 80.1124 232.161 80.1464C231.901 80.169 231.629 80.169 231.369 80.169C231.052 80.169 230.735 80.1464 230.419 80.135C230.068 80.1011 229.729 80.0672 229.378 80.0332C229.061 79.9767 228.722 79.9314 228.405 79.8749C223.699 78.902 219.774 75.8025 217.636 71.6736H212.806V113.868H170.544V110.135C171.143 109.829 171.709 109.479 172.263 109.105C172.806 108.732 173.338 108.325 173.835 107.872C174.084 107.657 174.333 107.431 174.559 107.182C174.786 106.956 175.023 106.719 175.227 106.458C175.329 106.357 175.442 106.232 175.532 106.108C175.691 105.927 175.838 105.734 175.973 105.542C176.2 105.237 176.437 104.92 176.629 104.592C176.686 104.524 176.72 104.445 176.765 104.377C176.799 104.32 176.822 104.275 176.856 104.219C176.946 104.06 177.048 103.879 177.139 103.71C177.387 103.246 177.614 102.771 177.829 102.296C177.863 102.194 177.919 102.081 177.953 101.979C178.055 101.696 178.168 101.413 178.258 101.13C178.315 100.972 178.36 100.791 178.417 100.633C178.485 100.372 178.553 100.09 178.632 99.8182C178.688 99.6372 178.722 99.4449 178.734 99.2752C178.756 99.2526 178.756 99.2412 178.756 99.2412C178.824 98.9245 178.881 98.5851 178.915 98.2684C178.971 97.929 179.005 97.5784 179.016 97.2277C179.039 96.8544 179.05 96.4698 179.05 96.0965C179.05 95.8815 179.05 95.6666 179.028 95.463C179.005 95.2028 178.994 94.9539 178.971 94.6824C178.948 94.4336 178.915 94.1847 178.869 93.9359C178.835 93.6757 178.801 93.4268 178.722 93.1553C178.722 93.0988 178.722 93.0309 178.688 92.9743C178.666 92.7933 178.632 92.6236 178.586 92.4426C178.394 91.5377 178.089 90.678 177.738 89.8635C177.433 89.1734 177.082 88.506 176.675 87.8612C176.415 87.3861 176.087 86.945 175.736 86.5038C175.611 86.3228 175.487 86.1644 175.329 86.006C175.17 85.7911 174.978 85.5762 174.786 85.3839C174.718 85.2821 174.605 85.1916 174.503 85.0784C174.322 84.8861 174.13 84.6938 173.915 84.5128C173.768 84.3884 173.632 84.2527 173.451 84.1056C173.236 83.9246 173.021 83.7549 172.795 83.5966C172.704 83.5061 172.602 83.4382 172.489 83.3816C172.263 83.2006 172.025 83.0423 171.777 82.9065C171.562 82.7482 171.335 82.6011 171.087 82.4767C171.019 82.4201 170.951 82.3862 170.86 82.3522C170.6 82.1939 170.317 82.0468 170.035 81.9224C169.695 81.7414 169.344 81.6056 168.994 81.4812C168.677 81.3341 168.326 81.2323 167.987 81.1305C167.421 80.9495 166.856 80.8138 166.256 80.7006C165.792 80.6102 165.34 80.5423 164.876 80.5083C164.378 80.4518 163.903 80.4405 163.406 80.4405C162.908 80.4405 162.433 80.4631 161.935 80.5083C161.471 80.5423 161.019 80.6102 160.555 80.7006C159.967 80.8025 159.39 80.9495 158.824 81.1305C158.485 81.2323 158.134 81.3454 157.817 81.4812C157.467 81.6056 157.105 81.7414 156.777 81.9224C156.494 82.0468 156.211 82.1825 155.94 82.3522C155.872 82.3862 155.804 82.4201 155.725 82.4767C155.442 82.6237 155.159 82.7934 154.899 82.9744C154.752 83.0649 154.639 83.1328 154.514 83.2346C154.265 83.3929 154.039 83.5739 153.802 83.7662C153.734 83.8002 153.666 83.868 153.587 83.9472C153.281 84.1622 152.998 84.411 152.738 84.6712C152.704 84.7051 152.67 84.7278 152.648 84.7617C152.365 85.0106 152.116 85.2708 151.867 85.5536C151.811 85.6101 151.765 85.6554 151.709 85.7346C151.483 85.9834 151.268 86.2436 151.075 86.5151C150.974 86.6169 150.894 86.73 150.827 86.8318C150.634 87.092 150.442 87.3748 150.261 87.6576C150.035 88.0083 149.82 88.3703 149.627 88.7323C149.005 89.8861 148.553 91.1191 148.247 92.4313C148.191 92.6123 148.157 92.782 148.146 92.963C148.112 93.0196 148.112 93.0874 148.112 93.144C148.044 93.4042 148.01 93.6531 147.976 93.9245C147.919 94.1734 147.885 94.4223 147.874 94.6711C147.851 94.9313 147.84 95.1802 147.817 95.4517C147.795 95.6666 147.795 95.8815 147.795 96.0852C147.795 96.4585 147.817 96.8431 147.829 97.2164C148.168 102.861 151.505 107.703 156.302 110.146V113.879H114.107V71.6849H110.148C109.933 72.0695 109.718 72.4654 109.492 72.8387C109.243 73.212 108.994 73.5853 108.734 73.936C108.508 74.2414 108.27 74.5355 108.021 74.8183C107.388 75.5649 106.675 76.2324 105.895 76.8319C105.589 77.0808 105.273 77.307 104.956 77.5219C104.922 77.5559 104.865 77.5785 104.831 77.6124C104.481 77.8387 104.119 78.0536 103.768 78.2459C103.383 78.4608 102.987 78.6532 102.603 78.8342C102.286 78.9812 101.969 79.0943 101.653 79.2188C100.963 79.4789 100.261 79.6826 99.526 79.8409C99.1753 79.9088 98.8133 79.988 98.4513 80.0332C97.7273 80.135 96.9807 80.1916 96.2228 80.1916C95.759 80.1916 95.2839 80.169 94.8427 80.1237C94.7749 80.1237 94.6957 80.1237 94.6278 80.1011C94.2432 80.0672 93.8699 80.0106 93.474 79.9427H93.4061C92.9762 79.8522 92.5351 79.7617 92.1278 79.6373C91.6866 79.5129 91.2568 79.3884 90.8382 79.2301C90.3631 79.0491 89.8993 78.8568 89.4582 78.6418H89.4355C88.9717 78.4156 88.5532 78.178 88.1233 77.9179C87.8971 77.7934 87.6821 77.6577 87.4672 77.5106C86.6414 76.945 85.8609 76.3115 85.1482 75.5989C84.4356 74.8862 83.8021 74.1283 83.2591 73.3025C83.112 73.0876 82.9763 72.8727 82.8519 72.669C82.5917 72.2279 82.3541 71.7867 82.1279 71.3455C81.913 70.8817 81.7206 70.4292 81.5397 69.9541C81.3813 69.5243 81.2569 69.1057 81.1324 68.6645C81.008 68.2573 80.9175 67.8161 80.827 67.3863V67.3184C80.7591 66.9338 80.7026 66.5605 80.6686 66.1646C80.646 66.0967 80.646 66.0175 80.646 65.9496C80.5894 65.5084 80.5781 65.0333 80.5781 64.5695C80.5781 64.1962 80.6007 63.8116 80.6347 63.4383C80.6686 62.6804 80.7817 61.9338 80.9514 61.2325C80.974 61.0515 81.0193 60.8818 81.0759 60.7008C81.1437 60.3614 81.2568 60.0447 81.3587 59.7053C81.4605 59.3546 81.6075 58.9927 81.7433 58.642C81.8451 58.3592 81.9921 58.0537 82.1166 57.7936C82.1505 57.7257 82.1844 57.6578 82.2184 57.5786C82.3654 57.2958 82.5012 57.013 82.6822 56.7529C82.9084 56.3117 83.1912 55.9044 83.474 55.4972C83.689 55.1918 83.9039 54.909 84.1301 54.6262C84.3111 54.4339 84.4695 54.2189 84.6392 54.0379C84.7975 53.8569 84.9785 53.6873 85.1482 53.5063C85.4989 53.1556 85.8609 52.8389 86.2455 52.4995H86.2681C86.6414 52.1828 87.0487 51.8773 87.4559 51.5945H87.4785C87.8518 51.3457 88.2251 51.1194 88.6097 50.8819C88.7116 50.8253 88.8247 50.7574 88.9491 50.7009C89.3224 50.5086 89.707 50.3162 90.1143 50.1353C91.9921 49.3547 94.0396 48.9135 96.2002 48.9135C102.263 48.9135 107.512 52.3751 110.114 57.4203H114.073V15.2373H212.76V57.4316H217.591C219.729 53.2913 223.654 50.2031 228.36 49.2303C228.677 49.1737 229.016 49.1285 229.333 49.0719C229.683 49.0154 230.023 48.9814 230.373 48.9701C230.69 48.9475 231.007 48.9362 231.324 48.9362C231.584 48.9362 231.855 48.9362 232.116 48.9588C232.659 48.9927 233.179 49.0493 233.711 49.1172C233.993 49.1737 234.254 49.2077 234.548 49.2755C241.64 50.7574 246.957 57.0243 246.957 64.5582L247.002 64.5356Z" fill="#E6E6E6" stroke="white" stroke-miterlimit="10"/>
<path d="M80.677 63.427C80.6431 63.8003 80.6205 64.1849 80.6205 64.5582C80.6205 65.022 80.6431 65.4971 80.6884 65.9383C80.6884 66.0062 80.6884 66.0741 80.711 66.1532C80.7449 66.5378 80.8015 66.9111 80.8694 67.3071V67.3749C80.9598 67.8048 81.0503 68.246 81.1748 68.6532C81.2992 69.0944 81.4237 69.5243 81.582 69.9428C81.763 70.4179 81.9553 70.8817 82.1702 71.3342C82.3965 71.7754 82.634 72.2165 82.8942 72.6577C83.0187 72.8727 83.1544 73.0876 83.3015 73.2912C83.8444 74.117 84.4892 74.8862 85.1906 75.5876C85.9033 76.3002 86.6725 76.9337 87.5096 77.4993C87.7245 77.6464 87.9394 77.7821 88.1657 77.9066C88.5955 78.1667 89.0141 78.4043 89.4779 78.6305H89.5005C89.9417 78.8455 90.4055 79.0378 90.8806 79.2188C91.3105 79.3771 91.729 79.5016 92.1702 79.626C92.5774 79.7504 93.0186 79.8409 93.4485 79.9314H93.5163C93.9009 79.9993 94.2742 80.0559 94.6702 80.0898C94.738 80.1124 94.8172 80.1124 94.8851 80.1124C95.3263 80.169 95.8014 80.1803 96.2652 80.1803C97.0231 80.1803 97.7697 80.1237 98.4937 80.0219C98.867 79.9654 99.2176 79.8975 99.5683 79.8296C100.292 79.6712 101.005 79.4789 101.695 79.2074C102.012 79.083 102.328 78.9586 102.645 78.8228C103.03 78.6418 103.426 78.4495 103.81 78.2346C104.161 78.0423 104.523 77.8274 104.874 77.6011C104.908 77.5672 104.964 77.5446 104.998 77.5106C105.315 77.2957 105.632 77.0695 105.937 76.8206C106.718 76.221 107.419 75.5423 108.064 74.807C108.313 74.5242 108.539 74.2188 108.776 73.9247C109.037 73.574 109.285 73.2007 109.534 72.8274C109.761 72.4541 109.975 72.0695 110.19 71.6736H114.15V113.868H71.978V118.608C77.0119 121.187 80.4847 126.436 80.4847 132.51C80.4847 132.827 80.4621 133.144 80.4508 133.46C80.4508 133.687 80.4282 133.89 80.3942 134.094C80.3716 134.32 80.3603 134.535 80.3264 134.761C80.2359 135.35 80.1341 135.915 79.9757 136.481C79.9191 136.696 79.8739 136.911 79.7834 137.114C79.6024 137.714 79.3762 138.313 79.116 138.879C79.0255 139.128 78.901 139.377 78.7766 139.603C78.2336 140.666 77.5775 141.673 76.797 142.578C76.6047 142.804 76.4124 143.019 76.1974 143.234C76.0164 143.426 75.8241 143.641 75.6092 143.834C75.1115 144.309 74.5798 144.75 74.0142 145.146C73.8671 145.27 73.7088 145.372 73.5504 145.485C73.4033 145.576 73.245 145.678 73.0866 145.768C72.8943 145.893 72.702 146.017 72.4871 146.141C72.4531 146.164 72.4305 146.164 72.4192 146.175C71.7065 146.56 70.9825 146.888 70.2246 147.171C69.5007 147.431 68.7541 147.646 67.9961 147.804C67.7473 147.861 67.4871 147.906 67.2382 147.951C66.7066 148.019 66.1975 148.076 65.6432 148.11C65.4962 148.132 65.383 148.132 65.236 148.132H64.4554C64.3084 148.132 64.1953 148.132 64.0482 148.11C63.5052 148.076 62.9849 148.019 62.4532 147.951C62.2043 147.917 61.9441 147.861 61.6953 147.804C60.9374 147.646 60.1908 147.431 59.4668 147.171C58.8672 146.956 58.279 146.696 57.736 146.413C57.6342 146.356 57.5098 146.311 57.3967 146.254C57.2157 146.153 57.0573 146.062 56.8989 145.949C55.5528 145.157 54.3198 144.162 53.279 142.997C53.1207 142.816 52.9623 142.646 52.8039 142.454C52.08 141.583 51.4578 140.632 50.9487 139.626C50.8017 139.365 50.6886 139.094 50.5641 138.811C50.4397 138.551 50.3379 138.268 50.2248 137.985C49.8402 136.956 49.5574 135.881 49.399 134.784C49.365 134.558 49.3424 134.343 49.3311 134.117C49.2972 133.902 49.2746 133.709 49.2746 133.483C49.2519 133.166 49.2406 132.85 49.2406 132.533C49.2406 126.47 52.6908 121.221 57.7473 118.63V113.89H15.5078V15.2373H114.104V57.4316H110.145C107.543 52.3864 102.295 48.9249 96.2312 48.9249C94.0706 48.9249 92.0231 49.366 90.1453 50.1466C89.7381 50.3276 89.3535 50.5199 88.9802 50.7122C88.8557 50.7687 88.7539 50.8366 88.6408 50.8932C88.2562 51.1194 87.8829 51.357 87.5096 51.6058H87.487C87.0797 51.8886 86.6725 52.1941 86.2992 52.5108H86.2766C85.8919 52.8502 85.53 53.1669 85.1793 53.5176C84.9983 53.6986 84.8286 53.8683 84.6702 54.0492C84.4892 54.2302 84.3309 54.4339 84.1612 54.6375C83.9349 54.9203 83.72 55.2031 83.5051 55.5085C83.2223 55.9158 82.9395 56.323 82.7132 56.7642C82.5322 57.0243 82.3965 57.3071 82.2494 57.5899C82.2155 57.6578 82.1816 57.737 82.1476 57.8049C82.0232 58.0651 81.8874 58.3705 81.7743 58.6533C81.6273 59.004 81.4915 59.366 81.3897 59.7166C81.2879 60.056 81.1748 60.3727 81.1069 60.7121C81.0503 60.8931 81.0051 61.0628 80.9825 61.2438C80.8015 61.9564 80.6997 62.6917 80.6657 63.4496L80.677 63.427Z" fill="#FF0001"/>
<path d="M311.492 15.2373V113.857H269.32V118.596C274.365 121.175 277.827 126.424 277.827 132.499C277.827 141.13 270.847 148.132 262.193 148.132C253.54 148.132 246.583 141.13 246.583 132.499C246.583 126.436 250.044 121.187 255.089 118.596V113.857H212.805V71.6622H217.477C219.637 75.8477 223.608 78.9699 228.404 79.8635C228.721 79.9201 229.06 79.9654 229.377 80.0219C229.728 80.0558 230.067 80.0898 230.418 80.1237C230.734 80.1464 231.051 80.1577 231.368 80.1577C231.628 80.1577 231.9 80.1577 232.16 80.135C232.703 80.1124 233.234 80.0672 233.755 79.9767C234.038 79.9201 234.298 79.8862 234.592 79.8183C241.775 78.4382 247.16 72.1034 247.16 64.5243C247.16 56.9452 241.764 50.6217 234.592 49.2416C234.309 49.1737 234.049 49.1398 233.755 49.0832C233.246 48.9927 232.714 48.9362 232.16 48.9249C231.9 48.9022 231.628 48.9022 231.368 48.9022C231.051 48.9022 230.734 48.9248 230.418 48.9362C230.067 48.9588 229.728 48.9927 229.377 49.038C229.06 49.0945 228.721 49.1398 228.404 49.1963C223.608 50.1013 219.637 53.2122 217.477 57.3976H212.805V15.2373H311.492Z" fill="#E6E6E6" stroke="white" stroke-miterlimit="10"/>
<path d="M178.619 163.155C178.619 171.786 185.621 178.766 194.252 178.766C200.316 178.766 205.553 175.315 208.155 170.259H212.804V212.453H170.542V217.193C175.587 219.795 179.049 225.021 179.049 231.095C179.049 239.727 172.047 246.729 163.416 246.729C154.784 246.729 147.805 239.727 147.805 231.095C147.805 225.032 151.255 219.795 156.311 217.193V212.453H114.117V170.259H118.857C121.459 175.315 126.696 178.766 132.76 178.766C141.391 178.766 148.393 171.786 148.393 163.155C148.393 154.524 141.391 147.521 132.76 147.521C126.696 147.521 121.459 150.983 118.857 156.028H114.117V113.856H156.311V109.965C151.572 107.522 148.246 102.771 147.839 97.1937C147.816 96.8204 147.805 96.4358 147.805 96.0625C147.805 95.8476 147.805 95.6326 147.827 95.429C147.85 95.1688 147.861 94.92 147.884 94.6485C147.907 94.3996 147.94 94.1507 147.986 93.9019C148.02 93.6417 148.054 93.3928 148.121 93.1213C148.121 93.0648 148.121 92.9969 148.155 92.9403C148.189 92.7593 148.223 92.5897 148.257 92.4087C148.348 92.0919 148.438 91.7752 148.54 91.4698C148.574 91.3679 148.608 91.2435 148.642 91.1304C148.664 91.0399 148.698 90.9494 148.732 90.8702C148.834 90.5648 148.959 90.282 149.083 89.9992C149.807 88.3137 150.814 86.7752 152.058 85.4743C152.25 85.282 152.431 85.0897 152.646 84.9087C152.895 84.6598 153.155 84.411 153.461 84.1847C153.619 84.0264 153.8 83.8793 153.992 83.7549C154.207 83.5739 154.422 83.4155 154.649 83.2798C154.716 83.2232 154.784 83.1893 154.864 83.1327C155.146 82.9404 155.429 82.7594 155.735 82.601C155.802 82.5445 155.893 82.4992 155.995 82.4427C156.311 82.2617 156.662 82.092 157.002 81.9449C157.318 81.7979 157.624 81.6848 157.94 81.5603C158.087 81.5038 158.223 81.4585 158.37 81.402C158.721 81.2775 159.094 81.1757 159.468 81.0852C159.875 80.9834 160.305 80.8703 160.723 80.8024H160.746C161.006 80.7459 161.278 80.7119 161.538 80.7006C161.73 80.6667 161.945 80.644 162.16 80.6327C162.59 80.5988 163.008 80.5762 163.438 80.5762C170.757 80.5762 176.9 85.6214 178.608 92.4087C178.642 92.5897 178.676 92.7593 178.71 92.9403C178.743 92.9969 178.743 93.0648 178.743 93.1213C178.811 93.3815 178.845 93.6304 178.89 93.9019C178.947 94.1507 178.981 94.3996 178.992 94.6485C179.015 94.9086 179.026 95.1575 179.049 95.429C179.071 95.6439 179.071 95.8589 179.071 96.0625C179.071 96.4358 179.049 96.8204 179.038 97.1937C179.015 97.5444 178.981 97.9064 178.936 98.2344C178.879 98.5738 178.811 98.9018 178.755 99.2412C177.782 103.913 174.705 107.816 170.565 109.954V113.845H212.827V156.017H208.178C205.576 150.972 200.35 147.51 194.275 147.51C185.644 147.51 178.642 154.512 178.642 163.143L178.619 163.155Z" fill="#E6E6E6" stroke="white" stroke-miterlimit="10"/>
<path d="M247 262.464C247 271.095 239.997 278.097 231.366 278.097C225.303 278.097 220.054 274.636 217.464 269.579H212.792V311.774H114.105V269.579H109.365C106.786 274.636 101.526 278.097 95.4623 278.097C86.8312 278.097 79.8516 271.095 79.8516 262.464C79.8516 253.833 86.8312 246.831 95.4623 246.831C101.526 246.831 106.774 250.292 109.365 255.349H114.105V212.453H156.299V217.193C151.242 219.795 147.792 225.021 147.792 231.096C147.792 239.727 154.772 246.729 163.403 246.729C172.034 246.729 179.036 239.727 179.036 231.096C179.036 225.032 175.575 219.795 170.53 217.193V212.453H212.792V255.349H217.464C220.043 250.292 225.303 246.831 231.366 246.831C239.997 246.831 247 253.833 247 262.464Z" fill="#E6E6E6" stroke="white" stroke-miterlimit="10"/>
<path d="M148.38 163.155C148.38 171.786 141.378 178.766 132.747 178.766C126.684 178.766 121.446 175.315 118.844 170.259H114.104V212.453H71.9328V208.471C74.4214 207.193 76.5481 205.247 77.9961 202.883C78.2562 202.499 78.4938 202.091 78.6861 201.684C78.8784 201.311 79.0594 200.937 79.2178 200.553C79.2517 200.519 79.2743 200.462 79.2856 200.428C79.3196 200.361 79.3535 200.27 79.3761 200.202C79.444 200.01 79.5119 199.795 79.5911 199.603C79.6929 199.286 79.806 198.947 79.8965 198.63C79.9983 198.324 80.0775 198.008 80.1228 197.691C80.1906 197.374 80.2472 197.069 80.2811 196.752C80.3829 196.028 80.4395 195.315 80.4395 194.58C80.4395 194.275 80.4395 193.98 80.4169 193.698C80.3942 193.449 80.3829 193.223 80.349 192.985C80.2924 192.442 80.2246 191.888 80.1001 191.356C80.0436 191.107 80.0096 190.858 79.9418 190.632C79.8739 190.383 79.806 190.157 79.7268 189.919C79.659 189.671 79.5685 189.444 79.478 189.195C77.34 183.189 71.5708 178.89 64.8061 178.89C59.1161 178.89 54.1275 181.933 51.4352 186.481C51.0506 187.114 50.7112 187.793 50.4058 188.494C49.9985 189.41 49.7157 190.372 49.5234 191.356C49.4555 191.616 49.399 191.899 49.365 192.182C49.3311 192.442 49.2972 192.714 49.2746 192.974C49.2406 193.2 49.218 193.438 49.2067 193.686C49.1841 193.969 49.1841 194.275 49.1841 194.569C49.1841 195.315 49.2406 196.017 49.3424 196.741C49.3764 197.057 49.4329 197.363 49.5008 197.68C49.5574 197.996 49.6252 198.313 49.727 198.618C49.7949 198.924 49.8854 199.218 49.9872 199.523C50.0777 199.806 50.1795 200.066 50.304 200.338C50.304 200.361 50.304 200.394 50.3266 200.406C50.3266 200.428 50.3492 200.44 50.3492 200.44C50.4397 200.723 50.5641 200.983 50.6999 201.254C50.9487 201.797 51.2429 202.351 51.6048 202.861C53.0528 205.225 55.1795 207.193 57.6908 208.471V212.453H15.5078V113.857H57.7021V118.596C52.6456 121.176 49.1954 126.424 49.1954 132.499C49.1954 132.816 49.218 133.132 49.2293 133.449C49.2293 133.675 49.2519 133.879 49.2859 134.083C49.3085 134.309 49.3198 134.524 49.3537 134.75C49.5121 135.847 49.7949 136.922 50.1795 137.951C50.2813 138.234 50.3945 138.517 50.5189 138.777C50.6433 139.06 50.7677 139.32 50.9035 139.592C51.4125 140.599 52.0347 141.56 52.7587 142.42C52.9171 142.612 53.0754 142.793 53.2338 142.963C54.2745 144.128 55.5188 145.123 56.8537 145.915C57.0121 146.017 57.1704 146.108 57.3514 146.221C57.4532 146.277 57.5663 146.345 57.6908 146.379C58.2338 146.662 58.822 146.922 59.4215 147.137C60.1455 147.42 60.8921 147.635 61.65 147.77C61.8989 147.827 62.1591 147.872 62.4079 147.917C62.9396 147.985 63.4487 148.042 64.003 148.076C64.1387 148.098 64.2631 148.098 64.4102 148.098C64.5346 148.121 64.6591 148.121 64.7948 148.121C64.9305 148.121 65.055 148.121 65.1794 148.098C65.3265 148.098 65.4396 148.098 65.5867 148.076C66.1296 148.042 66.65 147.985 67.1817 147.917C67.4305 147.884 67.6907 147.827 67.9396 147.77C68.6975 147.623 69.4441 147.42 70.1681 147.137C70.926 146.877 71.65 146.537 72.3626 146.141C72.3853 146.119 72.3966 146.119 72.4305 146.108C72.6454 145.983 72.8377 145.859 73.03 145.734C73.1884 145.644 73.3468 145.542 73.4938 145.451C73.6522 145.35 73.8106 145.236 73.9576 145.112C74.5232 144.727 75.0549 144.286 75.5527 143.8C75.7676 143.608 75.9599 143.393 76.1409 143.2C76.3671 142.985 76.5707 142.77 76.7404 142.544C77.521 141.639 78.1771 140.632 78.72 139.569C78.8445 139.343 78.9689 139.094 79.0594 138.845C79.3196 138.28 79.5572 137.68 79.7268 137.08C79.8173 136.866 79.8626 136.651 79.9191 136.447C80.0775 135.881 80.1793 135.316 80.2698 134.728C80.3037 134.501 80.3264 134.286 80.3377 134.06C80.3716 133.845 80.3942 133.653 80.3942 133.427C80.4169 133.11 80.4282 132.793 80.4282 132.476C80.4282 126.413 76.9667 121.164 71.9215 118.574V113.834H114.093V156.006H118.833C121.435 150.96 126.672 147.499 132.736 147.499C141.367 147.499 148.369 154.501 148.369 163.132L148.38 163.155Z" fill="#E6E6E6" stroke="white" stroke-miterlimit="10"/>
<path d="M79.8626 262.464C79.8626 271.095 86.8422 278.098 95.4733 278.098C101.537 278.098 106.785 274.636 109.376 269.58H114.116V311.774H15.5078V212.465H57.7021V208.415C55.2134 207.137 53.1207 205.236 51.6162 202.883C51.2994 202.374 50.994 201.82 50.7112 201.277C50.5868 201.017 50.4623 200.734 50.3605 200.462C50.3605 200.462 50.3379 200.44 50.3379 200.428C50.3153 200.406 50.3153 200.372 50.3153 200.361C50.1908 200.1 50.089 199.829 49.9985 199.546C49.8967 199.241 49.8062 198.947 49.7383 198.641C49.6479 198.336 49.58 198.019 49.5121 197.702C49.4442 197.385 49.3877 197.08 49.3537 196.763C49.2519 196.039 49.1954 195.327 49.1954 194.591C49.1954 194.286 49.1954 193.992 49.218 193.709C49.2406 193.46 49.2519 193.234 49.2859 192.996C49.3424 192.453 49.4103 191.899 49.5347 191.367C49.7497 190.372 50.0438 189.422 50.4171 188.505C50.7225 187.793 51.0506 187.125 51.4465 186.492C54.184 181.978 59.1614 178.958 64.8174 178.958C71.5595 178.958 77.306 183.234 79.4893 189.218C79.5798 189.467 79.6703 189.693 79.7381 189.942C79.806 190.168 79.8739 190.406 79.9531 190.655C80.0209 190.881 80.0549 191.13 80.1114 191.379C80.2359 191.91 80.3037 192.453 80.3603 193.008C80.3942 193.234 80.4169 193.471 80.4282 193.72C80.4508 194.003 80.4508 194.309 80.4508 194.603C80.4508 195.349 80.3942 196.051 80.2924 196.775C80.2585 197.091 80.2019 197.397 80.1341 197.714C80.0662 198.03 79.987 198.347 79.9078 198.652C79.8173 198.969 79.7155 199.309 79.6024 199.625C79.5006 199.942 79.3762 200.259 79.2291 200.576C79.0707 200.96 78.8897 201.333 78.6974 201.707C78.5051 202.114 78.2676 202.521 78.0074 202.906C76.5029 205.236 74.3988 207.148 71.9441 208.426V212.476H114.116V255.372H109.376C106.797 250.315 101.537 246.853 95.4733 246.853C86.8422 246.853 79.8626 253.856 79.8626 262.487V262.464Z" fill="#E6E6E6" stroke="white" stroke-miterlimit="10"/>
<path d="M311.492 212.453V311.763H212.805V269.568H217.477C220.056 274.625 225.305 278.086 231.379 278.086C240.01 278.086 247.013 271.084 247.013 262.453C247.013 253.822 240.01 246.82 231.379 246.82C225.316 246.82 220.067 250.281 217.477 255.338H212.805V212.442H255.089V208.392C250.033 205.813 246.583 200.553 246.583 194.49C246.583 185.858 253.562 178.879 262.193 178.879C270.825 178.879 277.827 185.858 277.827 194.49C277.827 200.553 274.365 205.802 269.32 208.392V212.442H311.492V212.453Z" fill="#E6E6E6" stroke="white" stroke-miterlimit="10"/>
</g>
<defs>
<clipPath id="clip0_1736_994">
<rect width="327" height="327" fill="white"/>
</clipPath>
</defs>
</svg>
