<svg width="101" height="168" viewBox="0 0 101 168" fill="none" xmlns="http://www.w3.org/2000/svg">
<path d="M65.619 83.1548C65.619 91.7859 72.6212 98.7655 81.2524 98.7655C87.3157 98.7655 92.5532 95.3153 95.155 90.2588H99.8043V132.453H57.5421V137.193C62.5873 139.795 66.0489 145.021 66.0489 151.095C66.0489 159.727 59.0467 166.729 50.4155 166.729C41.7843 166.729 34.8047 159.727 34.8047 151.095C34.8047 145.032 38.2549 139.795 43.3115 137.193V132.453H1.11719V90.2588H5.85698C8.45877 95.3153 13.6963 98.7655 19.7596 98.7655C28.3908 98.7655 35.393 91.7859 35.393 83.1548C35.393 74.5236 28.3908 67.5214 19.7596 67.5214C13.6963 67.5214 8.45877 70.9829 5.85698 76.0281H1.11719V33.8565H43.3115V29.9651C38.5717 27.5217 35.2459 22.7706 34.8387 17.1937C34.8161 16.8204 34.8047 16.4358 34.8047 16.0625C34.8047 15.8476 34.8047 15.6326 34.8274 15.429C34.85 15.1688 34.8613 14.92 34.8839 14.6485C34.9065 14.3996 34.9405 14.1507 34.9857 13.9019C35.0197 13.6417 35.0536 13.3928 35.1215 13.1213C35.1215 13.0648 35.1215 12.9969 35.1554 12.9403C35.1894 12.7593 35.2233 12.5897 35.2572 12.4087C35.3477 12.0919 35.4382 11.7752 35.54 11.4698C35.574 11.3679 35.6079 11.2435 35.6418 11.1304C35.6645 11.0399 35.6984 10.9494 35.7323 10.8702C35.8341 10.5648 35.9586 10.282 36.083 9.99918C36.807 8.31367 37.8138 6.77522 39.0581 5.47432C39.2504 5.28201 39.4314 5.08971 39.6463 4.90871C39.8952 4.65985 40.1554 4.41098 40.4608 4.18474C40.6192 4.02637 40.8002 3.87931 40.9925 3.75488C41.2074 3.57389 41.4224 3.41552 41.6486 3.27977C41.7165 3.22321 41.7843 3.18927 41.8635 3.13271C42.1463 2.9404 42.4291 2.75941 42.7345 2.60104C42.8024 2.54448 42.8929 2.49923 42.9947 2.44267C43.3115 2.26167 43.6621 2.092 44.0015 1.94494C44.3182 1.79788 44.6237 1.68476 44.9404 1.56032C45.0875 1.50376 45.2232 1.45851 45.3703 1.40195C45.721 1.27752 46.0943 1.17571 46.4676 1.08521C46.8748 0.983405 47.3047 0.870284 47.7232 0.802411H47.7458C48.006 0.745851 48.2775 0.71191 48.5377 0.700597C48.73 0.666661 48.9449 0.64404 49.1599 0.632727C49.5897 0.598791 50.0082 0.576172 50.4381 0.576172C57.7571 0.576172 63.8996 5.62139 65.6077 12.4087C65.6416 12.5897 65.6756 12.7593 65.7095 12.9403C65.7434 12.9969 65.7434 13.0648 65.7434 13.1213C65.8113 13.3815 65.8452 13.6304 65.8905 13.9019C65.9471 14.1507 65.981 14.3996 65.9923 14.6485C66.0149 14.9086 66.0262 15.1575 66.0489 15.429C66.0715 15.6439 66.0715 15.8589 66.0715 16.0625C66.0715 16.4358 66.0489 16.8204 66.0376 17.1937C66.0149 17.5444 65.981 17.9064 65.9357 18.2344C65.8792 18.5738 65.8113 18.9018 65.7548 19.2412C64.7819 23.9131 61.705 27.8158 57.5648 29.9538V33.8452H99.8269V76.0168H95.1776C92.5758 70.9716 87.3496 67.5101 81.275 67.5101C72.6439 67.5101 65.6416 74.5123 65.6416 83.1435L65.619 83.1548Z" fill="#E6E6E6" stroke="white" stroke-miterlimit="10"/>
</svg>
