<svg width="100" height="135" viewBox="0 0 100 135" fill="none" xmlns="http://www.w3.org/2000/svg">
<path d="M64.8626 84.4642C64.8626 93.0954 71.8422 100.098 80.4733 100.098C86.5366 100.098 91.7855 96.6361 94.3759 91.5795H99.1157V133.774H0.507812V34.4646H42.7021V30.4148C40.2134 29.1366 38.1207 27.2361 36.6162 24.8832C36.2994 24.3741 35.994 23.8198 35.7112 23.2769C35.5868 23.0167 35.4623 22.7339 35.3605 22.4624C35.3605 22.4624 35.3379 22.4398 35.3379 22.4284C35.3153 22.4058 35.3153 22.3719 35.3153 22.3606C35.1908 22.1004 35.089 21.8289 34.9985 21.5461C34.8967 21.2407 34.8062 20.9466 34.7383 20.6411C34.6479 20.3357 34.58 20.019 34.5121 19.7022C34.4442 19.3855 34.3877 19.0801 34.3537 18.7633C34.2519 18.0393 34.1954 17.3267 34.1954 16.5914C34.1954 16.286 34.1954 15.9918 34.218 15.709C34.2406 15.4602 34.2519 15.2339 34.2859 14.9964C34.3424 14.4534 34.4103 13.8991 34.5347 13.3674C34.7497 12.372 35.0438 11.4217 35.4171 10.5055C35.7225 9.79279 36.0506 9.12538 36.4465 8.4919C39.184 3.97835 44.1614 0.958008 49.8174 0.958008C56.5595 0.958008 62.306 5.234 64.4893 11.2181C64.5798 11.467 64.6703 11.6932 64.7381 11.9421C64.806 12.1683 64.8739 12.4059 64.9531 12.6548C65.0209 12.881 65.0549 13.1299 65.1114 13.3787C65.2359 13.9104 65.3037 14.4534 65.3603 15.0077C65.3942 15.2339 65.4169 15.4715 65.4282 15.7204C65.4508 16.0032 65.4508 16.3086 65.4508 16.6027C65.4508 17.3493 65.3942 18.0506 65.2924 18.7746C65.2585 19.0914 65.2019 19.3968 65.1341 19.7135C65.0662 20.0303 64.987 20.347 64.9078 20.6524C64.8173 20.9692 64.7155 21.3085 64.6024 21.6253C64.5006 21.942 64.3762 22.2588 64.2291 22.5755C64.0707 22.9601 63.8897 23.3334 63.6974 23.7067C63.5051 24.114 63.2676 24.5212 63.0074 24.9058C61.5029 27.2361 59.3988 29.1479 56.9441 30.4261V34.4759H99.1157V77.3715H94.3759C91.7968 72.315 86.5366 68.8535 80.4733 68.8535C71.8422 68.8535 64.8626 75.8557 64.8626 84.4868V84.4642Z" fill="#E6E6E6" stroke="white" stroke-miterlimit="10"/>
</svg>
